<svg width="37" height="36" viewBox="0 0 37 36" fill="none" xmlns="http://www.w3.org/2000/svg">
<rect x="0.5" width="36" height="36" rx="18" fill="#F4F8FD"/>
<path d="M28.133 9.90747C27.133 10.3975 26.153 10.5965 25.133 10.8975C24.012 9.63247 22.3499 9.56247 20.7529 10.1605C19.1559 10.7585 18.1099 12.2205 18.1329 13.8975V14.8975C14.8879 14.9805 11.9978 13.5025 10.1328 10.8975C10.1328 10.8975 5.95079 18.3305 14.1329 21.8975C12.2609 23.1445 10.3938 23.9855 8.13281 23.8975C11.4408 25.7005 15.0459 26.3205 18.1669 25.4145C21.7469 24.3745 24.689 21.6915 25.818 17.6725C26.1548 16.4501 26.322 15.1873 26.315 13.9195C26.313 13.6705 27.825 11.1475 28.133 9.90647V9.90747Z" stroke="#2977D7" stroke-width="1.50001" stroke-linecap="round" stroke-linejoin="round"/>
</svg>
