<svg width="49" height="48" viewBox="0 0 49 48" fill="none" xmlns="http://www.w3.org/2000/svg">
<path opacity="0.3" d="M30.5 8H18.5C12.98 8 8.5 12.48 8.5 18V30C8.5 35.52 12.98 40 18.5 40H30.5C36.02 40 40.5 35.52 40.5 30V18C40.5 12.48 36.02 8 30.5 8ZM35.02 28.52C35.02 31.84 32.34 34.52 29.02 34.52H19.98C16.66 34.52 13.98 31.84 13.98 28.52V19.48C13.98 16.16 16.66 13.48 19.98 13.48H29C32.32 13.48 35 16.16 35 19.48V28.52H35.02Z" fill="#2977D7"/>
<path d="M18.6172 5.5V8H18.4972C17.4972 8 16.5372 8.14 15.6172 8.42V5.5C15.6172 4.68 16.2772 4 17.1172 4C17.9372 4 18.6172 4.68 18.6172 5.5Z" fill="#2977D7"/>
<path d="M26 5.5V8H23V5.5C23 4.68 23.68 4 24.5 4C25.32 4 26 4.68 26 5.5Z" fill="#2977D7"/>
<path d="M33.3984 5.5V8.42C32.4784 8.14 31.4984 8 30.4984 8H30.3984V5.5C30.3984 4.68 31.0784 4 31.8984 4C32.7184 4 33.3984 4.68 33.3984 5.5Z" fill="#2977D7"/>
<path d="M44.4981 16.5938C44.4981 17.4338 43.8381 18.0938 42.9981 18.0938H40.4981V17.9937C40.4981 16.9937 40.3581 16.0138 40.0781 15.0938H42.9981C43.8381 15.0938 44.4981 15.7738 44.4981 16.5938Z" fill="#2977D7"/>
<path d="M44.5 24C44.5 24.82 43.84 25.5 43 25.5H40.5V22.5H43C43.84 22.5 44.5 23.16 44.5 24Z" fill="#2977D7"/>
<path d="M44.4981 31.4063C44.4981 32.2263 43.8381 32.9063 42.9981 32.9063H40.0781C40.3581 31.9863 40.4981 31.0063 40.4981 30.0063V29.9062H42.9981C43.8381 29.9062 44.4981 30.5663 44.4981 31.4063Z" fill="#2977D7"/>
<path d="M33.3984 39.5781V42.4981C33.3984 43.3181 32.7184 43.9981 31.8984 43.9981C31.0784 43.9981 30.3984 43.3181 30.3984 42.4981V39.9981H30.4984C31.4984 39.9981 32.4784 39.8581 33.3984 39.5781Z" fill="#2977D7"/>
<path d="M26.0234 40V42.5C26.0234 43.32 25.3434 44 24.5234 44C23.6834 44 23.0234 43.32 23.0234 42.5V40H26.0234Z" fill="#2977D7"/>
<path d="M18.6172 39.9981V42.4981C18.6172 43.3181 17.9372 43.9981 17.1172 43.9981C16.2772 43.9981 15.6172 43.3181 15.6172 42.4981V39.5781C16.5372 39.8581 17.4972 39.9981 18.4972 39.9981H18.6172Z" fill="#2977D7"/>
<path d="M8.92 15.0938C8.64 16.0138 8.5 16.9937 8.5 17.9937V18.0938H6C5.18 18.0938 4.5 17.4338 4.5 16.5938C4.5 15.7738 5.18 15.0938 6 15.0938H8.92Z" fill="#2977D7"/>
<path d="M8.5 22.5V25.5H6C5.18 25.5 4.5 24.82 4.5 24C4.5 23.16 5.18 22.5 6 22.5H8.5Z" fill="#2977D7"/>
<path d="M8.92 32.9063H6C5.18 32.9063 4.5 32.2263 4.5 31.4063C4.5 30.5663 5.18 29.9062 6 29.9062H8.5V30.0063C8.5 31.0063 8.64 31.9863 8.92 32.9063Z" fill="#2977D7"/>
<path d="M29.0166 13.4844H19.9766C16.6566 13.4844 13.9766 16.1644 13.9766 19.4844V28.5044C13.9766 31.8244 16.6566 34.5044 19.9766 34.5044H28.9966C32.3166 34.5044 34.9966 31.8244 34.9966 28.5044V19.4844C35.0166 16.1844 32.3166 13.4844 29.0166 13.4844ZM27.6766 26.0844L25.7966 29.3644C25.5166 29.8444 25.0166 30.1244 24.4966 30.1244C24.2366 30.1244 23.9766 30.0644 23.7566 29.9244C23.0366 29.5044 22.7966 28.5844 23.1966 27.8844L24.5566 25.5244H23.3766C22.4166 25.5244 21.6366 25.1044 21.2166 24.3844C20.7966 23.6644 20.8366 22.7644 21.2966 21.9444L23.1766 18.6644C23.5966 17.9444 24.5166 17.7044 25.2166 18.1044C25.9366 18.5244 26.1766 19.4444 25.7766 20.1444L24.4166 22.5044H25.5966C26.5566 22.5044 27.3366 22.9244 27.7566 23.6444C28.1966 24.3644 28.1566 25.2444 27.6766 26.0844Z" fill="#2977D7"/>
</svg>
