<svg width="105" height="41" viewBox="0 0 105 41" fill="none" xmlns="http://www.w3.org/2000/svg">
<path d="M1.80469 6.20312V34.6327H44.9619L54.4906 6.20312H1.80469ZM44.5911 34.0846H2.36084V6.75125H53.7491L44.5911 34.0846Z" fill="#627AA1"/>
<path d="M1.25 5.65625V35.1821H45.3712L55.2707 5.65625H1.25ZM2.3623 34.0858V6.75251H53.7505L44.5926 34.0858H2.3623Z" fill="#627AA1"/>
<path d="M53.7437 6.75L44.5858 34.0833H2.35547V6.75H53.7437Z" fill="#627AA1"/>
<g opacity="0.2">
<path d="M10.4609 27.1878V14.8001H14.4652V16.3714C15.2809 15.3848 16.8752 14.5078 18.3953 14.5078V18.3082C18.1729 18.2351 17.8392 18.1985 17.3943 18.1985C16.3561 18.1985 14.9843 18.637 14.4652 19.3679V27.1878H10.4609Z" fill="#627AA1"/>
<path d="M19.5391 20.9757C19.5391 17.5042 22.0974 14.5078 26.3612 14.5078C30.6621 14.5078 33.2203 17.5042 33.2203 20.9757C33.2203 24.4472 30.6621 27.4802 26.3612 27.4802C22.0974 27.4802 19.5391 24.4472 19.5391 20.9757ZM29.1048 20.9757C29.1048 19.3313 28.1038 17.9793 26.3612 17.9793C24.6186 17.9793 23.6546 19.3313 23.6546 20.9757C23.6546 22.6201 24.6186 24.0087 26.3612 24.0087C28.1408 24.0087 29.1048 22.6567 29.1048 20.9757Z" fill="#627AA1"/>
<path d="M38.7163 27.1846L33.7852 14.7969H37.9748L40.7926 22.6168L43.6475 14.7969H47.8743L42.9431 27.148H38.7163V27.1846Z" fill="#627AA1"/>
<path d="M57.207 27.1878V14.8001H61.2113V16.3714C62.027 15.3848 63.6213 14.5078 65.1414 14.5078V18.3082C64.919 18.2351 64.5853 18.1985 64.1404 18.1985C63.1022 18.1985 61.7304 18.637 61.2113 19.3679V27.1878H57.207Z" fill="#627AA1"/>
<path d="M72.959 14.5078C76.6666 14.5078 79.3732 17.2119 79.3732 21.3777V22.2182H70.4377C70.6602 23.3875 71.7725 24.4107 73.6263 24.4107C74.7386 24.4107 75.9992 23.9722 76.7037 23.351L78.3721 25.7993C77.1115 26.8955 75.0352 27.4436 73.1443 27.4436C69.2884 27.4436 66.2852 24.9588 66.2852 20.9392C66.2852 17.3946 69.0288 14.5078 72.959 14.5078ZM70.4007 19.6602H75.5543C75.4431 18.7832 74.8128 17.5408 72.959 17.5408C71.2164 17.5408 70.549 18.7832 70.4007 19.6602Z" fill="#627AA1"/>
<path d="M90.0179 27.1853V20.0231C90.0179 18.5249 89.2022 17.9768 87.9787 17.9768C86.7922 17.9768 86.0136 18.6345 85.5316 19.1827V27.1488H81.5273V14.7976H85.5316V16.2958C86.2732 15.4188 87.7562 14.4688 89.8696 14.4688C92.7245 14.4688 94.0222 16.1131 94.0222 18.3787V27.1122H90.0179V27.1853Z" fill="#627AA1"/>
</g>
<path d="M56.0893 0.595837L43.4453 39.7344L44.5052 40.067L57.1492 0.928441L56.0893 0.595837Z" fill="#627AA1"/>
<path d="M10.0547 26.7138V14.3626H14.059V15.9339C14.8747 14.9473 16.4689 14.0703 17.9891 14.0703V17.8707C17.7666 17.7976 17.4329 17.761 16.988 17.761C15.9499 17.761 14.578 18.1995 14.059 18.9304V26.7503H10.0547V26.7138Z" fill="#F7F9FC"/>
<path d="M19.1328 20.4992C19.1328 17.0277 21.6911 14.0312 25.9549 14.0312C30.2558 14.0312 32.8141 17.0277 32.8141 20.4992C32.8141 23.9706 30.2558 27.0036 25.9549 27.0036C21.6911 27.0036 19.1328 24.0072 19.1328 20.4992ZM28.6986 20.4992C28.6986 18.8548 27.6975 17.5027 25.9549 17.5027C24.2123 17.5027 23.2483 18.8548 23.2483 20.4992C23.2483 22.1435 24.2123 23.5321 25.9549 23.5321C27.7346 23.5321 28.6986 22.1801 28.6986 20.4992Z" fill="#F7F9FC"/>
<path d="M38.3101 26.7105L33.3789 14.3594H37.6056L40.4235 22.1793L43.2784 14.3594H47.5051L42.5739 26.7105H38.3101Z" fill="#F7F9FC"/>
<path d="M56.8008 26.7138V14.3626H60.8051V15.9339C61.6207 14.9473 63.215 14.0703 64.7352 14.0703V17.8707C64.5127 17.7976 64.179 17.761 63.7341 17.761C62.696 17.761 61.3241 18.1995 60.8051 18.9304V26.7503H56.8008V26.7138Z" fill="#627AA1"/>
<path d="M72.5551 14.0312C76.2627 14.0312 78.9693 16.7353 78.9693 20.9011V21.7416H70.0338C70.2563 22.9109 71.3686 23.9341 73.2224 23.9341C74.3347 23.9341 75.5953 23.4956 76.2998 22.8744L78.0053 25.3227C76.7447 26.419 74.6684 26.9671 72.7775 26.9671C68.9215 26.9671 65.9183 24.4822 65.9183 20.4626C65.8813 16.9181 68.662 14.0312 72.5551 14.0312ZM69.9968 19.2202H75.1504C75.0392 18.3432 74.4089 17.1008 72.5551 17.1008C70.8125 17.1008 70.1451 18.3066 69.9968 19.2202Z" fill="#627AA1"/>
<path d="M89.6116 26.7113V19.5856C89.6116 18.0874 88.796 17.5393 87.5724 17.5393C86.386 17.5393 85.6074 18.197 85.1254 18.7452V26.7113H81.1211V14.3601H85.1254V15.8583C85.8669 14.9813 87.35 14.0312 89.4633 14.0312C92.3182 14.0312 93.6159 15.6756 93.6159 17.9412V26.6747H89.6116V26.7113Z" fill="#627AA1"/>
<path d="M96.4531 34.9671V33.6882H102.571V27.6953H103.868V34.9671H96.4531Z" fill="#627AA1"/>
<path d="M103.87 13.3006H102.573V7.3077H96.4922V5.99219H103.87V13.3006Z" fill="#627AA1"/>
</svg>
