<svg width="25" height="25" viewBox="0 0 25 25" fill="none" xmlns="http://www.w3.org/2000/svg">
<path fill-rule="evenodd" clip-rule="evenodd" d="M5 3.74219C4.17157 3.74219 3.5 4.41376 3.5 5.24219V20.2422C3.5 21.0706 4.17157 21.7422 5 21.7422H20C20.8284 21.7422 21.5 21.0706 21.5 20.2422V5.24219C21.5 4.41376 20.8284 3.74219 20 3.74219H5ZM9.02076 7.74491C9.02639 8.70116 8.31061 9.29038 7.46123 9.28616C6.66107 9.28194 5.96357 8.64491 5.96779 7.74632C5.97201 6.90116 6.63998 6.22194 7.50764 6.24163C8.38795 6.26132 9.02639 6.90679 9.02076 7.74491ZM12.7797 10.5039H10.2597H10.2583V19.0638H12.9217V18.8641C12.9217 18.4842 12.9214 18.1042 12.9211 17.7241C12.9203 16.7103 12.9194 15.6954 12.9246 14.6819C12.926 14.4358 12.9372 14.1799 13.0005 13.945C13.2381 13.0675 14.0271 12.5008 14.9074 12.6401C15.4727 12.7286 15.8467 13.0563 16.0042 13.5893C16.1013 13.9225 16.1449 14.2811 16.1491 14.6285C16.1605 15.6761 16.1589 16.7237 16.1573 17.7714C16.1567 18.1412 16.1561 18.5112 16.1561 18.881V19.0624H18.828V18.8571C18.828 18.4051 18.8278 17.9532 18.8275 17.5013C18.827 16.3718 18.8264 15.2423 18.8294 14.1124C18.8308 13.6019 18.776 13.0985 18.6508 12.6049C18.4638 11.8708 18.0771 11.2633 17.4485 10.8246C17.0027 10.5124 16.5133 10.3113 15.9663 10.2888C15.904 10.2862 15.8412 10.2828 15.7781 10.2794C15.4984 10.2643 15.2141 10.2489 14.9467 10.3028C14.1817 10.4561 13.5096 10.8063 13.0019 11.4236C12.9429 11.4944 12.8852 11.5663 12.7991 11.6736L12.7797 11.6979V10.5039ZM6.18164 19.0666H8.83242V10.5095H6.18164V19.0666Z" fill="#627AA1"/>
</svg>
