<svg width="33" height="33" viewBox="0 0 33 33" fill="none" xmlns="http://www.w3.org/2000/svg">
<path d="M23.168 25.5131H17.8346L11.9013 29.4597C11.0213 30.0464 9.83464 29.4198 9.83464 28.3531V25.5131C5.83464 25.5131 3.16797 22.8464 3.16797 18.8464V10.8464C3.16797 6.84635 5.83464 4.17969 9.83464 4.17969H23.168C27.168 4.17969 29.8346 6.84635 29.8346 10.8464V18.8464C29.8346 22.8464 27.168 25.5131 23.168 25.5131Z" stroke="#2977D7" stroke-width="2" stroke-miterlimit="10" stroke-linecap="round" stroke-linejoin="round"/>
<path d="M16.4985 16.0859V15.806C16.4985 14.8993 17.0585 14.4193 17.6185 14.0326C18.1652 13.6593 18.7118 13.1793 18.7118 12.2993C18.7118 11.0726 17.7251 10.0859 16.4985 10.0859C15.2718 10.0859 14.2852 11.0726 14.2852 12.2993" stroke="#2977D7" stroke-width="2" stroke-linecap="round" stroke-linejoin="round"/>
<path d="M16.4927 19.2682H16.5047" stroke="#2977D7" stroke-width="2" stroke-linecap="round" stroke-linejoin="round"/>
</svg>
