<svg width="25" height="25" viewBox="0 0 25 25" fill="none" xmlns="http://www.w3.org/2000/svg">
<path d="M23.4462 7.0293C23.3162 6.54711 23.0622 6.10736 22.7095 5.75383C22.3568 5.4003 21.9176 5.14532 21.4357 5.01426C19.6489 4.52362 12.5004 4.51563 12.5004 4.51563C12.5004 4.51563 5.35304 4.50765 3.56507 4.97661C3.08347 5.11369 2.6452 5.37229 2.29233 5.72755C1.93947 6.08281 1.68385 6.52283 1.55003 7.00534C1.07878 8.79218 1.07422 12.4982 1.07422 12.4982C1.07422 12.4982 1.06966 16.2225 1.53747 17.9911C1.79991 18.9689 2.5701 19.7414 3.54909 20.005C5.35419 20.4956 12.4833 20.5036 12.4833 20.5036C12.4833 20.5036 19.6318 20.5116 21.4186 20.0438C21.9007 19.9129 22.3403 19.6585 22.6939 19.3057C23.0475 18.9529 23.3029 18.5139 23.4348 18.0322C23.9072 16.2465 23.9106 12.5416 23.9106 12.5416C23.9106 12.5416 23.9334 8.81614 23.4462 7.0293ZM10.2138 15.9315L10.2195 9.08542L16.1608 12.5142L10.2138 15.9315Z" fill="#627AA1"/>
</svg>
