<svg width="25" height="24" viewBox="0 0 25 24" fill="none" xmlns="http://www.w3.org/2000/svg">
<path d="M12.5 22C18.0228 22 22.5 17.5228 22.5 12C22.5 6.47715 18.0228 2 12.5 2C6.97715 2 2.5 6.47715 2.5 12C2.5 17.5228 6.97715 22 12.5 22Z" stroke="#627AA1" stroke-linecap="round" stroke-linejoin="round"/>
<path d="M8.50156 3H9.50156C7.55156 8.84 7.55156 15.16 9.50156 21H8.50156" stroke="#627AA1" stroke-linecap="round" stroke-linejoin="round"/>
<path d="M15.5 3C17.45 8.84 17.45 15.16 15.5 21" stroke="#627AA1" stroke-linecap="round" stroke-linejoin="round"/>
<path d="M3.5 16V15C9.34 16.95 15.66 16.95 21.5 15V16" stroke="#627AA1" stroke-linecap="round" stroke-linejoin="round"/>
<path d="M3.5 9.00156C9.34 7.05156 15.66 7.05156 21.5 9.00156" stroke="#627AA1" stroke-linecap="round" stroke-linejoin="round"/>
</svg>
