<svg width="37" height="36" viewBox="0 0 37 36" fill="none" xmlns="http://www.w3.org/2000/svg">
<rect x="0.5" width="36" height="36" rx="18" fill="#F4F8FD"/>
<path fill-rule="evenodd" clip-rule="evenodd" d="M10.5808 12.5361C10.7362 12.0224 11.2132 11.6484 11.7775 11.6484H25.7777C26.342 11.6484 26.8189 12.0224 26.9743 12.536L18.7775 18.0004L10.5808 12.5361ZM9.02754 12.8842C9.02729 12.8949 9.02728 12.9057 9.0275 12.9165V22.8984C9.0275 24.4172 10.2587 25.6484 11.7775 25.6484H25.7777C27.2964 25.6484 28.5277 24.4172 28.5277 22.8984V12.9032C28.5277 12.9018 28.5277 12.9005 28.5277 12.8991V12.8984C28.5277 11.3796 27.2964 10.1484 25.7777 10.1484H11.7775C10.2635 10.1484 9.03523 11.3719 9.02754 12.8842ZM27.0277 14.3032V22.8984C27.0277 23.5888 26.468 24.1484 25.7777 24.1484H11.7775C11.0872 24.1484 10.5275 23.5888 10.5275 22.8984V14.3033L18.3615 19.5259C18.6134 19.6938 18.9416 19.6938 19.1935 19.5259L27.0277 14.3032Z" fill="#2977D7"/>
</svg>
