<svg width="37" height="36" viewBox="0 0 37 36" fill="none" xmlns="http://www.w3.org/2000/svg">
<rect x="0.5" width="36" height="36" rx="18" fill="#F4F8FD"/>
<path fill-rule="evenodd" clip-rule="evenodd" d="M12.502 10.7578C11.8116 10.7578 11.252 11.3175 11.252 12.0078V24.0078C11.252 24.6982 11.8116 25.2578 12.502 25.2578H24.5021C25.1925 25.2578 25.7521 24.6982 25.7521 24.0078V12.0078C25.7521 11.3175 25.1925 10.7578 24.5021 10.7578H12.502ZM9.75195 12.0078C9.75195 10.489 10.9832 9.25781 12.502 9.25781H24.5021C26.0209 9.25781 27.2521 10.489 27.2521 12.0078V24.0078C27.2521 25.5266 26.0209 26.7578 24.5021 26.7578H12.502C10.9832 26.7578 9.75195 25.5266 9.75195 24.0078V12.0078ZM14.5088 16.2546C14.923 16.2546 15.2588 16.5904 15.2588 17.0046V22.0046C15.2588 22.4188 14.923 22.7546 14.5088 22.7546C14.0946 22.7546 13.7588 22.4188 13.7588 22.0046V17.0046C13.7588 16.5904 14.0946 16.2546 14.5088 16.2546ZM15.2588 14.0046C15.2588 13.5904 14.923 13.2546 14.5088 13.2546C14.0946 13.2546 13.7588 13.5904 13.7588 14.0046V14.0121C13.7588 14.4263 14.0946 14.7621 14.5088 14.7621C14.923 14.7621 15.2588 14.4263 15.2588 14.0121V14.0046ZM19.1357 16.6142C19.004 16.3985 18.7664 16.2546 18.4952 16.2546C18.081 16.2546 17.7452 16.5904 17.7452 17.0046V19.0046V22.0046C17.7452 22.4188 18.081 22.7546 18.4952 22.7546C18.9095 22.7546 19.2452 22.4188 19.2452 22.0046V19.0046C19.2452 18.6731 19.3769 18.3551 19.6114 18.1207C19.8458 17.8863 20.1637 17.7546 20.4953 17.7546C20.8268 17.7546 21.1447 17.8863 21.3792 18.1207C21.6136 18.3551 21.7453 18.6731 21.7453 19.0046V22.0046C21.7453 22.4188 22.0811 22.7546 22.4953 22.7546C22.9095 22.7546 23.2453 22.4188 23.2453 22.0046V19.0046C23.2453 18.2753 22.9555 17.5758 22.4398 17.0601C21.9241 16.5443 21.2246 16.2546 20.4953 16.2546C20.0144 16.2546 19.5465 16.3805 19.1357 16.6142Z" fill="#2977D7"/>
</svg>
