<svg width="85" height="68" viewBox="0 0 85 68" fill="none" xmlns="http://www.w3.org/2000/svg">
<path d="M1.89582 66.0434C3.13339 58.6182 6.41978 37.3943 17.9067 36.8472C22.6864 36.6196 29.3766 39.0143 32.4524 42.969C39.0578 51.4618 30.245 65.5581 22.1972 53.8522C17.6838 47.2873 21.3446 37.9074 24.0284 31.301C27.9846 21.5629 35.7178 16.9259 44.9053 12.8834C49.5711 10.8304 73.2299 6.25487 72.5317 7.65106" stroke="#1E293B" stroke-width="2.94316" stroke-linecap="round"/>
<path d="M81.0106 4.82546C80.2422 6.23675 74.0112 16.8519 74.9412 15.6563C76.1584 14.0913 77.2523 12.351 78.6561 10.9472C80.317 9.28637 81.5336 7.23254 83.3652 5.76726C84.9724 4.48149 74.432 2 72.5343 2" stroke="#1E293B" stroke-width="2.94316" stroke-linecap="round"/>
</svg>
