<svg width="84" height="84" viewBox="0 0 84 84" fill="none" xmlns="http://www.w3.org/2000/svg">
<path d="M49.1367 23.0603H67.1946C67.724 23.0619 68.2311 23.2731 68.605 23.6477C68.979 24.0222 69.1895 24.5297 69.1903 25.059V42.479H70.7364C71.574 42.4806 72.3942 42.7185 73.1026 43.1655V25.059C73.101 23.4909 72.4787 21.9872 71.3716 20.8767C70.2645 19.7662 68.7627 19.1392 67.1946 19.1328H49.1367V23.0603Z" fill="#2977D7"/>
<path d="M55.0037 65.9559C54.0332 65.7203 53.1699 65.1656 52.5525 64.3806C51.935 63.5957 51.5991 62.6261 51.5987 61.6274V60.5521H6.88969C6.3609 60.5505 5.85423 60.3398 5.48032 59.9659C5.10641 59.592 4.89571 59.0853 4.8941 58.5565V25.059C4.8949 24.5297 5.10529 24.0222 5.47928 23.6477C5.85328 23.2731 6.36038 23.0619 6.88969 23.0603H24.9659V19.1328H6.88969C5.32355 19.14 3.82419 19.7679 2.72017 20.8787C1.61615 21.9896 0.997578 23.4928 1.00001 25.059V65.2846C0.998394 66.8488 1.61781 68.3497 2.72217 69.4574C3.82653 70.5652 5.32547 71.1893 6.88969 71.1925H31.0409L29.9322 78.0907H25.9045C25.3994 78.1106 24.9216 78.3252 24.5713 78.6896C24.221 79.054 24.0254 79.5398 24.0254 80.0453C24.0254 80.5507 24.221 81.0366 24.5713 81.401C24.9216 81.7654 25.3994 81.98 25.9045 81.9999H48.224C48.7291 81.98 49.2068 81.7654 49.5572 81.401C49.9075 81.0366 50.1031 80.5507 50.1031 80.0453C50.1031 79.5398 49.9075 79.054 49.5572 78.6896C49.2068 78.3252 48.7291 78.1106 48.224 78.0907H44.178L43.0603 71.1925H55.429C54.8158 70.4756 54.4446 69.5834 54.3682 68.6431C54.2919 67.7028 54.5143 66.7623 55.0037 65.9559Z" fill="#2977D7"/>
<path d="M23.3732 14.0988C23.873 14.0938 24.3679 13.9991 24.8342 13.8193L28.057 17.4218V28.7669C29.0427 28.3898 30.0511 28.0753 31.0763 27.8252V16.8356C31.0793 16.4683 30.9412 16.1138 30.6905 15.8453L27.0789 11.8024C27.3878 11.217 27.5514 10.5659 27.5558 9.90399C27.5564 9.07348 27.3106 8.26145 26.8496 7.57066C26.3886 6.87986 25.733 6.34135 24.9659 6.02325C24.1987 5.70515 23.3544 5.62176 22.5398 5.78364C21.7252 5.94552 20.9769 6.34538 20.3897 6.93264C19.8024 7.5199 19.4025 8.26816 19.2407 9.08274C19.0788 9.89732 19.1622 10.7416 19.4803 11.5088C19.7984 12.276 20.3369 12.9315 21.0277 13.3926C21.7185 13.8536 22.5305 14.0994 23.361 14.0988H23.3732Z" fill="#2977D7"/>
<path d="M35.5398 10.1113L35.555 27.1213C36.0592 27.0879 36.5452 27.0727 37.0494 27.0727C37.5536 27.0727 38.073 27.0879 38.5682 27.1213V10.1113C39.4811 9.75697 40.2415 9.09462 40.7176 8.23887C41.1938 7.38312 41.3558 6.38782 41.1755 5.42525C40.9953 4.46268 40.4842 3.59341 39.7307 2.9679C38.9772 2.34239 38.0287 2 37.0494 2C36.0701 2 35.1217 2.34239 34.3682 2.9679C33.6147 3.59341 33.1035 4.46268 32.9233 5.42525C32.743 6.38782 32.905 7.38312 33.3812 8.23887C33.8573 9.09462 34.6177 9.75697 35.5307 10.1113H35.5398Z" fill="#2977D7"/>
<path d="M46.0236 17.4205L49.2494 13.818C49.7199 14.002 50.2204 14.0978 50.7256 14.1005C51.5553 14.1005 52.3663 13.8545 53.0561 13.3936C53.7459 12.9326 54.2836 12.2775 54.6011 11.511C54.9186 10.7445 55.0017 9.90107 54.8398 9.08736C54.678 8.27365 54.2784 7.52622 53.6918 6.93956C53.1051 6.35291 52.3577 5.9534 51.544 5.79154C50.7303 5.62968 49.8868 5.71275 49.1203 6.03025C48.3538 6.34774 47.6987 6.8854 47.2378 7.57523C46.7768 8.26506 46.5308 9.07608 46.5308 9.90573C46.5342 10.5664 46.6968 11.2166 47.0047 11.8011L43.3901 15.8471C43.152 16.1221 43.0205 16.4735 43.0195 16.8373V27.827C44.0392 28.0792 45.0424 28.3937 46.0236 28.7686V17.4205Z" fill="#2977D7"/>
<path d="M82.547 57.1124L79.8892 56.7266C79.5551 55.9186 79.4639 55.703 79.1298 54.9041L80.7367 52.7505C80.9446 52.4724 81.0455 52.1288 81.021 51.7825C80.9964 51.4361 80.8481 51.1102 80.603 50.8642L78.419 48.6833C78.1739 48.438 77.8487 48.2892 77.5029 48.2641C77.157 48.239 76.8137 48.3393 76.5358 48.5466L74.3792 50.1534L72.5567 49.3971L72.1709 46.7363C72.1207 46.3933 71.9489 46.0798 71.6868 45.8529C71.4248 45.6259 71.0899 45.5007 70.7432 45.5H67.6632C67.3164 45.5001 66.9812 45.6251 66.7191 45.8521C66.4569 46.0791 66.2853 46.393 66.2356 46.7363L65.8407 49.391L64.0182 50.1474L61.8646 48.5405C61.5867 48.3332 61.2434 48.2329 60.8975 48.258C60.5517 48.2831 60.2265 48.4319 59.9814 48.6772L57.8005 50.8581C57.5538 51.1031 57.4041 51.429 57.379 51.7757C57.3538 52.1224 57.455 52.4665 57.6638 52.7444L59.2767 54.9041C58.9425 55.706 58.8514 55.9217 58.5203 56.7266L55.8535 57.1124C55.5097 57.1621 55.1954 57.3341 54.9683 57.597C54.7412 57.8598 54.6165 58.1957 54.6172 58.543V61.6291C54.6173 61.9759 54.7423 62.3111 54.9693 62.5733C55.1963 62.8355 55.5102 63.0071 55.8535 63.0567L58.5113 63.4425C58.8454 64.2505 58.9365 64.4631 59.2707 65.265L57.6638 67.4186C57.4553 67.6961 57.3542 68.0396 57.3793 68.3858C57.4045 68.732 57.5541 69.0574 57.8005 69.3018L59.9814 71.4858C60.2265 71.7311 60.5517 71.8799 60.8975 71.905C61.2434 71.9301 61.5867 71.8298 61.8646 71.6225L64.0182 70.0157L65.8407 70.772L66.2295 73.4328C66.2792 73.7761 66.4508 74.09 66.713 74.317C66.9752 74.544 67.3103 74.669 67.6572 74.6691H70.7432C71.0899 74.6684 71.4248 74.5432 71.6868 74.3162C71.9489 74.0893 72.1207 73.7758 72.1709 73.4328L72.5567 70.772L74.3792 70.0157L76.5358 71.6225C76.8137 71.8298 77.157 71.9301 77.5029 71.905C77.8487 71.8799 78.1739 71.7311 78.419 71.4858L80.603 69.3018C80.8478 69.0564 80.9961 68.7309 81.0206 68.3851C81.0451 68.0393 80.9444 67.6962 80.7367 67.4186L79.1298 65.265C79.4639 64.457 79.5551 64.2444 79.8892 63.4425L82.547 63.0567C82.8902 63.0071 83.2041 62.8355 83.4312 62.5733C83.6582 62.3111 83.7832 61.9759 83.7833 61.6291V58.543C83.7839 58.1957 83.6592 57.8598 83.4321 57.597C83.205 57.3341 82.8908 57.1621 82.547 57.1124ZM69.182 65.5353C68.1043 65.5323 67.0517 65.21 66.157 64.6091C65.2624 64.0082 64.5659 63.1556 64.1556 62.159C63.7452 61.1625 63.6394 60.0667 63.8515 59.0101C64.0635 57.9534 64.584 56.9833 65.3471 56.2223C66.1103 55.4613 67.0818 54.9436 68.139 54.7344C69.1963 54.5253 70.2918 54.6341 71.2872 55.0472C72.2826 55.4603 73.1332 56.1592 73.7316 57.0555C74.3301 57.9518 74.6495 59.0053 74.6495 60.083C74.6495 61.5285 74.0755 62.9149 73.0536 63.9373C72.0318 64.9597 70.6457 65.5345 69.2002 65.5353H69.182Z" fill="#BDD5F3"/>
<path d="M16.888 39.3868C16.5539 39.6937 16.2872 40.0668 16.1047 40.4822C15.9223 40.8976 15.8281 41.3463 15.8281 41.8001C15.8281 42.2538 15.9223 42.7025 16.1047 43.1179C16.2872 43.5333 16.5539 43.9064 16.888 44.2133C20.5968 47.6427 28.233 53.5142 37.0478 53.5142C45.8627 53.5142 53.502 47.6427 57.2078 44.2133C57.5418 43.9064 57.8085 43.5333 57.9909 43.1179C58.1734 42.7025 58.2676 42.2538 58.2676 41.8001C58.2676 41.3463 58.1734 40.8976 57.9909 40.4822C57.8085 40.0668 57.5418 39.6937 57.2078 39.3868C53.502 35.9574 45.8657 30.0859 37.0478 30.0859C28.23 30.0859 20.5968 35.9574 16.888 39.3868ZM45.082 41.7985C45.0826 43.3877 44.612 44.9413 43.7295 46.2629C42.8471 47.5845 41.5925 48.6148 40.1245 49.2233C38.6565 49.8319 37.041 49.9914 35.4823 49.6817C33.9236 49.3721 32.4918 48.6071 31.3679 47.4837C30.244 46.3602 29.4785 44.9286 29.1683 43.3701C28.858 41.8115 29.0169 40.196 29.6249 38.7277C30.2329 37.2595 31.2627 36.0045 32.584 35.1216C33.9053 34.2387 35.4587 33.7674 37.0478 33.7674C39.1781 33.7674 41.2212 34.6134 42.7278 36.1195C44.2344 37.6255 45.0812 39.6683 45.082 41.7985Z" fill="#BDD5F3"/>
<path d="M36.6153 38.4905C36.6128 39.2531 36.308 39.9837 35.7676 40.5218C35.2271 41.06 34.4953 41.3617 33.7327 41.3609C33.1434 41.3589 32.5693 41.1743 32.0893 40.8324C32.0244 41.1513 31.9919 41.4759 31.9922 41.8014C31.9904 42.8025 32.2856 43.7816 32.8404 44.615C33.3952 45.4483 34.1847 46.0983 35.109 46.4828C36.0334 46.8673 37.051 46.969 38.0332 46.775C39.0153 46.5811 39.9179 46.1001 40.6267 45.3931C41.3354 44.686 41.8185 43.7846 42.0148 42.8029C42.2112 41.8213 42.1119 40.8034 41.7296 39.8781C41.3473 38.9529 40.6992 38.1618 39.8672 37.605C39.0352 37.0481 38.0568 36.7506 37.0557 36.75C36.7318 36.7501 36.4087 36.7786 36.0898 36.835C36.4313 37.3195 36.6149 37.8977 36.6153 38.4905Z" fill="#2977D7"/>
</svg>
