<svg width="49" height="49" viewBox="0 0 49 49" fill="none" xmlns="http://www.w3.org/2000/svg">
<path opacity="0.3" d="M38.9175 12.7464C36.8375 8.54639 32.8175 5.44639 28.1575 4.42639C23.2775 3.34639 18.2775 4.50639 14.4575 7.58639C10.6175 10.6464 8.4375 15.2264 8.4375 20.1264C8.4375 25.3064 11.5375 30.7264 16.2175 33.8664V35.5264C16.1975 36.0864 16.1775 36.9464 16.8575 37.6464C17.5575 38.3664 18.5975 38.4464 19.4175 38.4464H29.6775C30.7575 38.4464 31.5775 38.1464 32.1375 37.5864C32.8975 36.8064 32.8775 35.8064 32.8575 35.2664V33.8664C39.0575 29.6864 42.9575 20.8664 38.9175 12.7464Z" fill="#2977D7"/>
<path d="M31.0184 44.0281C30.8984 44.0281 30.7584 44.0081 30.6384 43.9681C26.6184 42.8281 22.3984 42.8281 18.3784 43.9681C17.6384 44.1681 16.8584 43.7481 16.6584 43.0081C16.4384 42.2681 16.8784 41.4881 17.6184 41.2881C22.1384 40.0081 26.8984 40.0081 31.4184 41.2881C32.1584 41.5081 32.5984 42.2681 32.3784 43.0081C32.1784 43.6281 31.6184 44.0281 31.0184 44.0281Z" fill="#2977D7"/>
<path d="M24.5007 27.7252C24.2407 27.7252 23.9807 27.6652 23.7607 27.5252C23.0407 27.1052 22.8007 26.1852 23.2007 25.4852L24.9007 22.5252H23.2207C22.2207 22.5252 21.4007 22.0852 20.9607 21.3452C20.5207 20.5852 20.5607 19.6652 21.0607 18.7852L23.2007 15.0652C23.6207 14.3452 24.5407 14.1052 25.2407 14.5052C25.9607 14.9252 26.2007 15.8452 25.8007 16.5452L24.1007 19.5252H25.7807C26.7807 19.5252 27.6007 19.9652 28.0407 20.7052C28.4807 21.4652 28.4407 22.3852 27.9407 23.2652L25.8007 26.9852C25.5207 27.4652 25.0207 27.7252 24.5007 27.7252Z" fill="#2977D7"/>
</svg>
