<svg width="33" height="33" viewBox="0 0 33 33" fill="none" xmlns="http://www.w3.org/2000/svg">
<path d="M17.8473 4.83125L25.714 8.32458C27.9807 9.32458 27.9807 10.9779 25.714 11.9779L17.8473 15.4713C16.954 15.8713 15.4873 15.8713 14.594 15.4713L6.72734 11.9779C4.46068 10.9779 4.46068 9.32458 6.72734 8.32458L14.594 4.83125C15.4873 4.43125 16.954 4.43125 17.8473 4.83125Z" stroke="#2977D7" stroke-width="2" stroke-linecap="round" stroke-linejoin="round"/>
<path d="M4.5 15.6016C4.5 16.7216 5.34 18.0149 6.36667 18.4682L15.42 22.4949C16.1133 22.8016 16.9 22.8016 17.58 22.4949L26.6333 18.4682C27.66 18.0149 28.5 16.7216 28.5 15.6016" stroke="#2977D7" stroke-width="2" stroke-linecap="round" stroke-linejoin="round"/>
<path d="M4.5 22.2734C4.5 23.5134 5.23333 24.6334 6.36667 25.1401L15.42 29.1668C16.1133 29.4734 16.9 29.4734 17.58 29.1668L26.6333 25.1401C27.7667 24.6334 28.5 23.5134 28.5 22.2734" stroke="#2977D7" stroke-width="2" stroke-linecap="round" stroke-linejoin="round"/>
</svg>
