<svg width="33" height="33" viewBox="0 0 33 33" fill="none" xmlns="http://www.w3.org/2000/svg">
<path d="M13.8594 24.2734H19.1927" stroke="#2977D7" stroke-width="2" stroke-linecap="round" stroke-linejoin="round"/>
<path d="M3.19531 24.2734V10.9401C3.19531 5.60677 4.52865 4.27344 9.86198 4.27344" stroke="#2977D7" stroke-width="2" stroke-linecap="round" stroke-linejoin="round"/>
<path d="M29.862 24.2734V10.9401C29.862 5.60677 28.5286 4.27344 23.1953 4.27344" stroke="#2977D7" stroke-width="2" stroke-linecap="round" stroke-linejoin="round"/>
<path d="M13.862 22.1474V26.5341C13.862 29.2007 12.7953 30.2674 10.1286 30.2674H6.92865C4.26198 30.2674 3.19531 29.2007 3.19531 26.5341V22.1474C3.19531 19.4807 4.26198 18.4141 6.92865 18.4141H10.1286C12.7953 18.4141 13.862 19.4807 13.862 22.1474Z" stroke="#2977D7" stroke-width="2" stroke-linecap="round" stroke-linejoin="round"/>
<path d="M29.862 22.1474V26.5341C29.862 29.2007 28.7953 30.2674 26.1286 30.2674H22.9286C20.262 30.2674 19.1953 29.2007 19.1953 26.5341V22.1474C19.1953 19.4807 20.262 18.4141 22.9286 18.4141H26.1286C28.7953 18.4141 29.862 19.4807 29.862 22.1474Z" stroke="#2977D7" stroke-width="2" stroke-linecap="round" stroke-linejoin="round"/>
</svg>
