<svg width="127" height="50" viewBox="0 0 127 50" fill="none" xmlns="http://www.w3.org/2000/svg">
<g clip-path="url(#clip0_414_37974)">
<path d="M0.621094 7.34375V42.4845H54.1526L65.9719 7.34375H0.621094ZM53.6928 41.807H1.31093V8.02127H65.0521L53.6928 41.807Z" fill="#2977D7"/>
<path d="M-0.0703125 6.66406V43.1599H54.657L66.9361 6.66406H-0.0703125ZM1.30937 41.8048V8.0191H65.0505L53.6912 41.8048H1.30937Z" fill="#2977D7"/>
<path d="M65.0459 8.01562L53.6865 41.8013H1.30469V8.01562H65.0459Z" fill="#2977D7"/>
<g opacity="0.2">
<path d="M11.3555 33.2671V17.9551H16.3223V19.8973C17.3341 18.6778 19.3116 17.5938 21.1972 17.5938V22.2912C20.9212 22.2009 20.5073 22.1557 19.9555 22.1557C18.6678 22.1557 16.9662 22.6977 16.3223 23.6011V33.2671H11.3555Z" fill="#050D3D"/>
<path d="M22.6133 25.5885C22.6133 21.2975 25.7865 17.5938 31.0753 17.5938C36.4101 17.5938 39.5833 21.2975 39.5833 25.5885C39.5833 29.8795 36.4101 33.6284 31.0753 33.6284C25.7865 33.6284 22.6133 29.8795 22.6133 25.5885ZM34.4785 25.5885C34.4785 23.5559 33.2368 21.8847 31.0753 21.8847C28.9138 21.8847 27.7181 23.5559 27.7181 25.5885C27.7181 27.6211 28.9138 29.3374 31.0753 29.3374C33.2828 29.3374 34.4785 27.6662 34.4785 25.5885Z" fill="#050D3D"/>
<path d="M46.4017 33.2651L40.2852 17.9531H45.4819L48.9771 27.6191L52.5183 17.9531H57.7611L51.6445 33.2199H46.4017V33.2651Z" fill="#050D3D"/>
<path d="M69.3398 33.2671V17.9551H74.3067V19.8973C75.3185 18.6778 77.296 17.5938 79.1816 17.5938V22.2912C78.9056 22.2009 78.4917 22.1557 77.9398 22.1557C76.6521 22.1557 74.9505 22.6977 74.3067 23.6011V33.2671H69.3398Z" fill="black"/>
<path d="M88.8757 17.5938C93.4747 17.5938 96.8319 20.9362 96.8319 26.0853V27.1242H85.7485C86.0244 28.5696 87.4041 29.8343 89.7035 29.8343C91.0832 29.8343 92.6469 29.2923 93.5207 28.5244L95.5902 31.5507C94.0265 32.9057 91.4511 33.5832 89.1057 33.5832C84.3228 33.5832 80.5977 30.5118 80.5977 25.5433C80.5977 21.162 84.0009 17.5938 88.8757 17.5938ZM85.7025 23.9624H92.095C91.957 22.8784 91.1752 21.3427 88.8757 21.3427C86.7142 21.3427 85.8864 22.8784 85.7025 23.9624Z" fill="black"/>
<path d="M110.035 33.2654V24.4124C110.035 22.5605 109.024 21.883 107.506 21.883C106.034 21.883 105.069 22.696 104.471 23.3736V33.2202H99.5039V17.9534H104.471V19.8053C105.391 18.7212 107.23 17.5469 109.851 17.5469C113.393 17.5469 115.002 19.5794 115.002 22.3799V33.175H110.035V33.2654Z" fill="black"/>
</g>
<path d="M67.9529 0.403561L52.2695 48.7812L53.5842 49.1924L69.2676 0.814681L67.9529 0.403561Z" fill="#2977D7"/>
<path d="M10.8516 32.6828V17.416H15.8184V19.3583C16.8302 18.1387 18.8077 17.0547 20.6933 17.0547V21.7522C20.4173 21.6618 20.0034 21.6167 19.4516 21.6167C18.1639 21.6167 16.4623 22.1587 15.8184 23.062V32.728H10.8516V32.6828Z" fill="white"/>
<path d="M22.1094 25.0026C22.1094 20.7116 25.2826 17.0078 30.5714 17.0078C35.9062 17.0078 39.0794 20.7116 39.0794 25.0026C39.0794 29.2935 35.9062 33.0425 30.5714 33.0425C25.2826 33.0425 22.1094 29.3387 22.1094 25.0026ZM33.9746 25.0026C33.9746 22.97 32.7329 21.2988 30.5714 21.2988C28.4099 21.2988 27.2142 22.97 27.2142 25.0026C27.2142 27.0351 28.4099 28.7515 30.5714 28.7515C32.7789 28.7515 33.9746 27.0803 33.9746 25.0026Z" fill="white"/>
<path d="M45.8978 32.6809L39.7812 17.4141H45.024L48.5192 27.08L52.0604 17.4141H57.3032L51.1866 32.6809H45.8978Z" fill="white"/>
<path d="M68.8359 32.6828V17.416H73.8028V19.3583C74.8145 18.1387 76.7921 17.0547 78.6776 17.0547V21.7522C78.4017 21.6618 77.9878 21.6167 77.4359 21.6167C76.1482 21.6167 74.4466 22.1587 73.8028 23.062V32.728H68.8359V32.6828Z" fill="#2977D7"/>
<path d="M88.3732 17.0078C92.9721 17.0078 96.3293 20.3502 96.3293 25.4994V26.5383H85.2459C85.5218 27.9837 86.9015 29.2484 89.201 29.2484C90.5807 29.2484 92.1443 28.7063 93.0181 27.9385L95.1336 30.9647C93.57 32.3198 90.9946 32.9973 88.6491 32.9973C83.8662 32.9973 80.1411 29.9259 80.1411 24.9574C80.0951 20.5761 83.5443 17.0078 88.3732 17.0078ZM85.1999 23.4217H91.5924C91.4545 22.3376 90.6726 20.8019 88.3732 20.8019C86.2117 20.8019 85.3839 22.2925 85.1999 23.4217Z" fill="#2977D7"/>
<path d="M109.532 32.6811V23.8734C109.532 22.0215 108.52 21.3439 107.002 21.3439C105.53 21.3439 104.565 22.157 103.967 22.8345V32.6811H99V17.4143H103.967V19.2662C104.887 18.1822 106.726 17.0078 109.348 17.0078C112.889 17.0078 114.498 19.0404 114.498 21.8408V32.636H109.532V32.6811Z" fill="#2977D7"/>
<path d="M118.02 42.8869V41.306H125.608V33.8984H127.217V42.8869H118.02Z" fill="#2977D7"/>
<path d="M127.218 16.1039H125.609V8.69636H118.066V7.07031H127.218V16.1039Z" fill="#2977D7"/>
</g>
<defs>
<clipPath id="clip0_414_37974">
<rect width="127" height="50" fill="white"/>
</clipPath>
</defs>
</svg>
