<svg width="84" height="84" viewBox="0 0 84 84" fill="none" xmlns="http://www.w3.org/2000/svg">
<path d="M7.16792 44.5233C6.66926 44.9815 6.27112 45.5383 5.99881 46.1583C5.7265 46.7784 5.58594 47.4482 5.58594 48.1254C5.58594 48.8026 5.7265 49.4725 5.99881 50.0925C6.27112 50.7126 6.66926 51.2694 7.16792 51.7276C12.7037 56.8463 24.1018 65.6102 37.259 65.6102C50.4163 65.6102 61.819 56.8463 67.3503 51.7276C67.8489 51.2694 68.247 50.7126 68.5193 50.0925C68.7916 49.4725 68.9323 48.8026 68.9323 48.1254C68.9323 47.4482 68.7916 46.7784 68.5193 46.1583C68.247 45.5383 67.8489 44.9815 67.3503 44.5233C61.819 39.4046 50.4208 30.6406 37.259 30.6406C24.0973 30.6406 12.7037 39.4046 7.16792 44.5233ZM49.2511 48.1232C49.252 50.4952 48.5495 52.8141 47.2323 54.7868C45.9151 56.7595 44.0425 58.2972 41.8513 59.2056C39.6602 60.1139 37.2488 60.3521 34.9223 59.8899C32.5957 59.4277 30.4585 58.2859 28.781 56.6089C27.1034 54.932 25.9609 52.7952 25.4978 50.4689C25.0347 48.1425 25.2719 45.7311 26.1794 43.5396C27.087 41.3481 28.624 39.4749 30.5962 38.157C32.5684 36.8391 34.887 36.1357 37.259 36.1357C40.4387 36.1357 43.4883 37.3985 45.7371 39.6464C47.9859 41.8944 49.2499 44.9435 49.2511 48.1232Z" fill="#2977D7"/>
<path d="M24.1311 13.8886C24.6221 13.8837 25.1083 13.7907 25.5664 13.6141L28.7326 17.1532V28.2987C29.7009 27.9283 30.6915 27.6193 31.6987 27.3736V16.5772C31.7017 16.2164 31.566 15.8682 31.3197 15.6044L27.7716 11.6326C28.0751 11.0575 28.2358 10.4178 28.2402 9.7676C28.2408 8.95169 27.9993 8.15395 27.5464 7.47531C27.0935 6.79667 26.4494 6.26762 25.6958 5.95512C24.9421 5.64261 24.1126 5.56069 23.3124 5.71972C22.5121 5.87875 21.777 6.27158 21.2001 6.84851C20.6231 7.42544 20.2303 8.16054 20.0713 8.96079C19.9122 9.76105 19.9942 10.5905 20.3067 11.3442C20.6192 12.0979 21.1482 12.7419 21.8269 13.1948C22.5055 13.6477 23.3032 13.8892 24.1191 13.8886H24.1311Z" fill="#BDD5F3"/>
<path d="M36.0823 9.96861L36.0973 26.6794C36.5926 26.6466 37.0701 26.6317 37.5654 26.6317C38.0608 26.6317 38.571 26.6466 39.0574 26.6794V9.96861C39.9543 9.62053 40.7013 8.96983 41.1691 8.12913C41.6369 7.28844 41.796 6.31064 41.619 5.365C41.4419 4.41936 40.9398 3.56538 40.1996 2.95087C39.4593 2.33636 38.5275 2 37.5654 2C36.6033 2 35.6716 2.33636 34.9313 2.95087C34.1911 3.56538 33.6889 4.41936 33.5119 5.365C33.3348 6.31064 33.4939 7.28844 33.9617 8.12913C34.4295 8.96983 35.1765 9.62053 36.0734 9.96861H36.0823Z" fill="#BDD5F3"/>
<path d="M46.3848 17.152L49.5539 13.6129C50.0161 13.7937 50.5078 13.8877 51.0041 13.8904C51.8192 13.8904 52.6159 13.6488 53.2936 13.1959C53.9713 12.7431 54.4995 12.0995 54.8115 11.3465C55.1234 10.5935 55.205 9.76487 55.046 8.96547C54.887 8.16608 54.4945 7.43179 53.9181 6.85545C53.3418 6.27912 52.6075 5.88663 51.8081 5.72762C51.0087 5.56861 50.1801 5.65022 49.4271 5.96213C48.6741 6.27404 48.0305 6.80224 47.5776 7.47994C47.1248 8.15763 46.8831 8.95439 46.8831 9.76944C46.8865 10.4185 47.0462 11.0572 47.3487 11.6315L43.7976 15.6063C43.5637 15.8765 43.4345 16.2217 43.4336 16.5791V27.3755C44.4353 27.6233 45.4209 27.9322 46.3848 28.3005V17.152Z" fill="#BDD5F3"/>
<path d="M36.6115 43.1838C36.6079 44.3222 36.1528 45.4126 35.3462 46.2159C34.5395 47.0191 33.4472 47.4695 32.3088 47.4683C31.4293 47.4653 30.5723 47.1897 29.856 46.6794C29.759 47.1554 29.7105 47.64 29.7109 48.1257C29.7083 49.62 30.1489 51.0816 30.977 52.3254C31.8052 53.5692 32.9835 54.5395 34.3632 55.1134C35.7429 55.6873 37.2619 55.8391 38.7278 55.5496C40.1938 55.26 41.5411 54.5422 42.599 53.4868C43.6569 52.4314 44.3779 51.086 44.671 49.6207C44.9641 48.1554 44.8159 46.6361 44.2453 45.2551C43.6747 43.874 42.7073 42.6932 41.4654 41.8621C40.2236 41.0309 38.7632 40.5868 37.2688 40.5859C36.7855 40.5861 36.3031 40.6286 35.8271 40.7129C36.3369 41.436 36.6109 42.299 36.6115 43.1838Z" fill="#2977D7"/>
<path d="M2.14553 39.4925C2.71377 39.4925 3.25878 39.2668 3.66059 38.865C4.0624 38.4632 4.28815 37.9182 4.28815 37.35V26.8819H14.7652C15.32 26.8612 15.8452 26.6262 16.2304 26.2264C16.6156 25.8266 16.8307 25.293 16.8307 24.7378C16.8307 24.1826 16.6156 23.6491 16.2304 23.2492C15.8452 22.8494 15.32 22.6145 14.7652 22.5938H2.14553C1.57701 22.5937 1.03173 22.8194 0.629452 23.2211C0.22717 23.6228 0.000790706 24.1678 0 24.7363V37.3589C0.00236941 37.9261 0.229587 38.4693 0.631784 38.8692C1.03398 39.2692 1.57832 39.4933 2.14553 39.4925Z" fill="#2977D7"/>
<path d="M14.7667 69.9057H4.28964V59.4287C4.3004 59.1404 4.25281 58.8529 4.14991 58.5834C4.047 58.3139 3.89079 58.0678 3.69064 57.8601C3.49048 57.6523 3.25062 57.4871 2.98513 57.3742C2.71964 57.2613 2.43406 57.2031 2.14557 57.2031C1.85707 57.2031 1.5715 57.2613 1.306 57.3742C1.04051 57.4871 0.800503 57.6523 0.600348 57.8601C0.400192 58.0678 0.243984 58.3139 0.14108 58.5834C0.0381769 58.8529 -0.00926367 59.1404 0.00149339 59.4287V72.0483C0.00149312 72.3299 0.0569701 72.6088 0.16483 72.8689C0.272691 73.1291 0.4308 73.3654 0.630072 73.5644C0.829343 73.7634 1.06597 73.9211 1.32626 74.0286C1.58655 74.1361 1.86541 74.1913 2.14702 74.1909H14.7667C15.3349 74.1909 15.8799 73.9651 16.2817 73.5633C16.6835 73.1615 16.9093 72.6165 16.9093 72.0483C16.9093 71.4801 16.6835 70.9351 16.2817 70.5333C15.8799 70.1315 15.3349 69.9057 14.7667 69.9057Z" fill="#2977D7"/>
<path d="M60.2452 26.8819H70.7223V37.3589C70.743 37.9137 70.978 38.4389 71.3778 38.8241C71.7776 39.2093 72.3111 39.4245 72.8663 39.4245C73.4215 39.4245 73.955 39.2093 74.3549 38.8241C74.7547 38.4389 74.9897 37.9137 75.0104 37.3589V24.7363C75.0096 24.1678 74.7832 23.6228 74.3809 23.2211C73.9787 22.8194 73.4334 22.5937 72.8649 22.5938H60.2452C59.6904 22.6145 59.1652 22.8494 58.78 23.2492C58.3948 23.6491 58.1797 24.1826 58.1797 24.7378C58.1797 25.293 58.3948 25.8266 58.78 26.2264C59.1652 26.6262 59.6904 26.8612 60.2452 26.8819Z" fill="#2977D7"/>
<path d="M66.7442 48.25C63.3308 48.2494 59.994 49.2611 57.1557 51.1571C54.3173 53.0531 52.105 55.7482 50.7985 58.9016C49.492 62.055 49.1501 65.525 49.8158 68.8728C50.4816 72.2206 52.1252 75.2957 54.5388 77.7093C56.9524 80.1229 60.0275 81.7666 63.3753 82.4323C66.7231 83.0981 70.1932 82.7561 73.3466 81.4496C76.5 80.1431 79.1951 77.9308 81.091 75.0924C82.987 72.2541 83.9988 68.9172 83.9982 65.5039C83.999 63.2379 83.5532 60.9939 82.6864 58.9002C81.8196 56.8065 80.5487 54.9041 78.9464 53.3018C77.3441 51.6995 75.4416 50.4286 73.3479 49.5618C71.2542 48.695 69.0102 48.2492 66.7442 48.25ZM74.9951 63.3345L66.1026 72.23C65.8584 72.4698 65.5693 72.6591 65.2519 72.7871C64.9344 72.9151 64.5947 72.9793 64.2525 72.976C63.5628 72.9741 62.9005 72.707 62.4024 72.23L57.9919 67.8166C57.5059 67.3306 57.233 66.6716 57.233 65.9843C57.233 65.2971 57.5059 64.638 57.9919 64.1521C58.4778 63.6662 59.1369 63.3932 59.8241 63.3932C60.5114 63.3932 61.1705 63.6662 61.6564 64.1521L64.2525 66.7512L71.298 59.7059C71.7875 59.2269 72.4451 58.9587 73.1301 58.9587C73.815 58.9587 74.4727 59.2269 74.9623 59.7059C75.2127 59.9361 75.4131 60.2153 75.5513 60.5261C75.6894 60.837 75.7622 61.1729 75.7653 61.5131C75.7684 61.8532 75.7017 62.1904 75.5692 62.5037C75.4367 62.817 75.2413 63.0997 74.9951 63.3345Z" fill="#BDD5F3"/>
</svg>
