<svg width="169" height="169" viewBox="0 0 169 169" fill="none" xmlns="http://www.w3.org/2000/svg">
<path d="M88.918 76.9568L90.0487 78.0859L88.918 79.215L89.8371 80.1328L90.9678 79.0037L92.101 80.1328L93.0202 79.215L91.8894 78.0859L93.0202 76.9568L92.101 76.0365L90.9678 77.168L89.8371 76.0365L88.918 76.9568Z" fill="#B9BDC2"/>
<path d="M88.918 63.8293L90.0487 64.9608L88.918 66.09L89.8371 67.0078L90.9678 65.8787L92.101 67.0078L93.0202 66.09L91.8894 64.9608L93.0202 63.8293L92.101 62.9114L90.9678 64.0405L89.8371 62.9114L88.918 63.8293Z" fill="#B9BDC2"/>
<path d="M88.918 50.7042L90.0487 51.8333L88.918 52.9649L89.8371 53.8828L90.9678 52.7536L92.101 53.8828L93.0202 52.9649L91.8894 51.8333L93.0202 50.7042L92.101 49.7864L90.9678 50.9155L89.8371 49.7864L88.918 50.7042Z" fill="#B9BDC2"/>
<path d="M88.918 37.5793L90.0487 38.7084L88.918 39.8375L89.8371 40.7578L90.9678 39.6264L92.101 40.7578L93.0202 39.8375L91.8894 38.7084L93.0202 37.5793L92.101 36.6614L90.9678 37.7906L89.8371 36.6614L88.918 37.5793Z" fill="#B9BDC2"/>
<path d="M88.918 24.4567L90.0487 25.5859L88.918 26.715L89.8371 27.6328L90.9678 26.5037L92.101 27.6328L93.0202 26.715L91.8894 25.5859L93.0202 24.4567L92.101 23.5365L90.9678 24.668L89.8371 23.5365L88.918 24.4567Z" fill="#B9BDC2"/>
<path d="M88.918 11.3293L90.0487 12.4608L88.918 13.5899L89.8371 14.5078L90.9678 13.3787L92.101 14.5078L93.0202 13.5899L91.8894 12.4608L93.0202 11.3293L92.101 10.4114L90.9678 11.5405L89.8371 10.4114L88.918 11.3293Z" fill="#B9BDC2"/>
<path d="M101.691 76.9568L102.825 78.0859L101.691 79.215L102.613 80.1328L103.744 79.0037L104.874 80.1328L105.794 79.215L104.663 78.0859L105.794 76.9568L104.874 76.0365L103.744 77.168L102.613 76.0365L101.691 76.9568Z" fill="#B9BDC2"/>
<path d="M101.691 63.8293L102.825 64.9608L101.691 66.09L102.613 67.0078L103.744 65.8787L104.874 67.0078L105.794 66.09L104.663 64.9608L105.794 63.8293L104.874 62.9114L103.744 64.0405L102.613 62.9114L101.691 63.8293Z" fill="#B9BDC2"/>
<path d="M101.691 50.7042L102.825 51.8333L101.691 52.9649L102.613 53.8828L103.744 52.7536L104.874 53.8828L105.794 52.9649L104.663 51.8333L105.794 50.7042L104.874 49.7864L103.744 50.9155L102.613 49.7864L101.691 50.7042Z" fill="#B9BDC2"/>
<path d="M101.691 37.5793L102.825 38.7084L101.691 39.8375L102.613 40.7578L103.744 39.6264L104.874 40.7578L105.794 39.8375L104.663 38.7084L105.794 37.5793L104.874 36.6614L103.744 37.7906L102.613 36.6614L101.691 37.5793Z" fill="#B9BDC2"/>
<path d="M104.874 23.5365L103.744 24.668L102.613 23.5365L101.691 24.4567L102.825 25.5859L101.691 26.715L102.613 27.6328L103.744 26.5037L104.874 27.6328L105.794 26.715L104.663 25.5859L105.794 24.4567L104.874 23.5365Z" fill="#B9BDC2"/>
<path d="M104.874 10.4114L103.744 11.5405L102.613 10.4114L101.691 11.3293L102.825 12.4608L101.691 13.5899L102.613 14.5078L103.744 13.3787L104.874 14.5078L105.794 13.5899L104.663 12.4608L105.794 11.3293L104.874 10.4114Z" fill="#B9BDC2"/>
<path d="M114.473 76.9568L115.603 78.0859L114.473 79.215L115.392 80.1328L116.523 79.0037L117.656 80.1328L118.575 79.215L117.444 78.0859L118.575 76.9568L117.656 76.0365L116.523 77.168L115.392 76.0365L114.473 76.9568Z" fill="#B9BDC2"/>
<path d="M114.473 63.8293L115.603 64.9608L114.473 66.09L115.392 67.0078L116.523 65.8787L117.656 67.0078L118.575 66.09L117.444 64.9608L118.575 63.8293L117.656 62.9114L116.523 64.0405L115.392 62.9114L114.473 63.8293Z" fill="#B9BDC2"/>
<path d="M114.473 50.7042L115.603 51.8333L114.473 52.9649L115.392 53.8828L116.523 52.7536L117.656 53.8828L118.575 52.9649L117.444 51.8333L118.575 50.7042L117.656 49.7864L116.523 50.9155L115.392 49.7864L114.473 50.7042Z" fill="#B9BDC2"/>
<path d="M114.473 37.5872L115.603 38.7162L114.473 39.8453L115.392 40.7656L116.523 39.6342L117.656 40.7656L118.575 39.8453L117.444 38.7162L118.575 37.5872L117.656 36.6692L116.523 37.7984L115.392 36.6692L114.473 37.5872Z" fill="#B9BDC2"/>
<path d="M114.473 24.4567L115.603 25.5859L114.473 26.715L115.392 27.6328L116.523 26.5037L117.656 27.6328L118.575 26.715L117.444 25.5859L118.575 24.4567L117.656 23.5365L116.523 24.668L115.392 23.5365L114.473 24.4567Z" fill="#B9BDC2"/>
<path d="M114.473 11.3293L115.603 12.4608L114.473 13.5899L115.392 14.5078L116.523 13.3787L117.656 14.5078L118.575 13.5899L117.444 12.4608L118.575 11.3293L117.656 10.4114L116.523 11.5405L115.392 10.4114L114.473 11.3293Z" fill="#B9BDC2"/>
<path d="M127.25 76.9568L128.383 78.0859L127.25 79.215L128.172 80.1328L129.302 79.0037L130.433 80.1328L131.352 79.215L130.221 78.0859L131.352 76.9568L130.433 76.0365L129.302 77.168L128.172 76.0365L127.25 76.9568Z" fill="#B9BDC2"/>
<path d="M127.25 63.8293L128.383 64.9608L127.25 66.09L128.172 67.0078L129.302 65.8787L130.433 67.0078L131.352 66.09L130.221 64.9608L131.352 63.8293L130.433 62.9114L129.302 64.0405L128.172 62.9114L127.25 63.8293Z" fill="#B9BDC2"/>
<path d="M127.25 50.7042L128.383 51.8333L127.25 52.9649L128.172 53.8828L129.302 52.7536L130.433 53.8828L131.352 52.9649L130.221 51.8333L131.352 50.7042L130.433 49.7864L129.302 50.9155L128.172 49.7864L127.25 50.7042Z" fill="#B9BDC2"/>
<path d="M127.25 37.5872L128.383 38.7162L127.25 39.8453L128.172 40.7656L129.302 39.6342L130.433 40.7656L131.352 39.8453L130.221 38.7162L131.352 37.5872L130.433 36.6692L129.302 37.7984L128.172 36.6692L127.25 37.5872Z" fill="#B9BDC2"/>
<path d="M130.433 23.5365L129.302 24.668L128.172 23.5365L127.25 24.4567L128.383 25.5859L127.25 26.715L128.172 27.6328L129.302 26.5037L130.433 27.6328L131.352 26.715L130.221 25.5859L131.352 24.4567L130.433 23.5365Z" fill="#B9BDC2"/>
<path d="M130.433 10.4114L129.302 11.5405L128.172 10.4114L127.25 11.3293L128.383 12.4608L127.25 13.5899L128.172 14.5078L129.302 13.3787L130.433 14.5078L131.352 13.5899L130.221 12.4608L131.352 11.3293L130.433 10.4114Z" fill="#B9BDC2"/>
<path d="M140.027 76.9568L141.158 78.0859L140.027 79.215L140.947 80.1328L142.077 79.0037L143.21 80.1328L144.13 79.215L142.999 78.0859L144.13 76.9568L143.21 76.0365L142.077 77.168L140.947 76.0365L140.027 76.9568Z" fill="#B9BDC2"/>
<path d="M140.027 63.8293L141.158 64.9608L140.027 66.09L140.947 67.0078L142.077 65.8787L143.21 67.0078L144.13 66.09L142.999 64.9608L144.13 63.8293L143.21 62.9114L142.077 64.0405L140.947 62.9114L140.027 63.8293Z" fill="#B9BDC2"/>
<path d="M140.027 50.7042L141.158 51.8333L140.027 52.9649L140.947 53.8828L142.077 52.7536L143.21 53.8828L144.13 52.9649L142.999 51.8333L144.13 50.7042L143.21 49.7864L142.077 50.9155L140.947 49.7864L140.027 50.7042Z" fill="#B9BDC2"/>
<path d="M140.027 37.5793L141.158 38.7084L140.027 39.8375L140.947 40.7578L142.077 39.6264L143.21 40.7578L144.13 39.8375L142.999 38.7084L144.13 37.5793L143.21 36.6614L142.077 37.7906L140.947 36.6614L140.027 37.5793Z" fill="#B9BDC2"/>
<path d="M140.027 24.4567L141.158 25.5859L140.027 26.715L140.947 27.6328L142.077 26.5037L143.21 27.6328L144.13 26.715L142.999 25.5859L144.13 24.4567L143.21 23.5365L142.077 24.668L140.947 23.5365L140.027 24.4567Z" fill="#B9BDC2"/>
<path d="M140.027 11.3293L141.158 12.4608L140.027 13.5899L140.947 14.5078L142.077 13.3787L143.21 14.5078L144.13 13.5899L142.999 12.4608L144.13 11.3293L143.21 10.4114L142.077 11.5405L140.947 10.4114L140.027 11.3293Z" fill="#B9BDC2"/>
<path d="M152.805 76.9568L153.938 78.0859L152.805 79.215L153.726 80.1328L154.857 79.0037L155.988 80.1328L156.909 79.215L155.776 78.0859L156.909 76.9568L155.988 76.0365L154.857 77.168L153.726 76.0365L152.805 76.9568Z" fill="#B9BDC2"/>
<path d="M152.805 63.8293L153.938 64.9608L152.805 66.09L153.726 67.0078L154.857 65.8787L155.988 67.0078L156.909 66.09L155.776 64.9608L156.909 63.8293L155.988 62.9114L154.857 64.0405L153.726 62.9114L152.805 63.8293Z" fill="#B9BDC2"/>
<path d="M152.805 50.7042L153.938 51.8333L152.805 52.9649L153.726 53.8828L154.857 52.7536L155.988 53.8828L156.909 52.9649L155.776 51.8333L156.909 50.7042L155.988 49.7864L154.857 50.9155L153.726 49.7864L152.805 50.7042Z" fill="#B9BDC2"/>
<path d="M152.805 37.5793L153.938 38.7084L152.805 39.8375L153.726 40.7578L154.857 39.6264L155.988 40.7578L156.909 39.8375L155.776 38.7084L156.909 37.5793L155.988 36.6614L154.857 37.7906L153.726 36.6614L152.805 37.5793Z" fill="#B9BDC2"/>
<path d="M155.988 23.5365L154.857 24.668L153.726 23.5365L152.805 24.4567L153.938 25.5859L152.805 26.715L153.726 27.6328L154.857 26.5037L155.988 27.6328L156.909 26.715L155.776 25.5859L156.909 24.4567L155.988 23.5365Z" fill="#B9BDC2"/>
<path d="M155.988 10.4114L154.857 11.5405L153.726 10.4114L152.805 11.3293L153.938 12.4608L152.805 13.5899L153.726 14.5078L154.857 13.3787L155.988 14.5078L156.909 13.5899L155.776 12.4608L156.909 11.3293L155.988 10.4114Z" fill="#B9BDC2"/>
<path d="M11.332 76.9568L12.4627 78.0859L11.332 79.215L12.2512 80.1328L13.3819 79.0037L14.5151 80.1328L15.4342 79.215L14.3035 78.0859L15.4342 76.9568L14.5151 76.0365L13.3819 77.168L12.2512 76.0365L11.332 76.9568Z" fill="#B9BDC2"/>
<path d="M11.332 63.8293L12.4627 64.9608L11.332 66.09L12.2512 67.0078L13.3819 65.8787L14.5151 67.0078L15.4342 66.09L14.3035 64.9608L15.4342 63.8293L14.5151 62.9114L13.3819 64.0405L12.2512 62.9114L11.332 63.8293Z" fill="#B9BDC2"/>
<path d="M11.332 50.7042L12.4627 51.8333L11.332 52.9649L12.2512 53.8828L13.3819 52.7536L14.5151 53.8828L15.4342 52.9649L14.3035 51.8333L15.4342 50.7042L14.5151 49.7864L13.3819 50.9155L12.2512 49.7864L11.332 50.7042Z" fill="#B9BDC2"/>
<path d="M11.332 37.5793L12.4627 38.7084L11.332 39.8375L12.2512 40.7578L13.3819 39.6264L14.5151 40.7578L15.4342 39.8375L14.3035 38.7084L15.4342 37.5793L14.5151 36.6614L13.3819 37.7906L12.2512 36.6614L11.332 37.5793Z" fill="#B9BDC2"/>
<path d="M11.332 24.4567L12.4627 25.5859L11.332 26.715L12.2512 27.6328L13.3819 26.5037L14.5151 27.6328L15.4342 26.715L14.3035 25.5859L15.4342 24.4567L14.5151 23.5365L13.3819 24.668L12.2512 23.5365L11.332 24.4567Z" fill="#B9BDC2"/>
<path d="M11.332 11.3293L12.4627 12.4608L11.332 13.5899L12.2512 14.5078L13.3819 13.3787L14.5151 14.5078L15.4342 13.5899L14.3035 12.4608L15.4342 11.3293L14.5151 10.4114L13.3819 11.5405L12.2512 10.4114L11.332 11.3293Z" fill="#B9BDC2"/>
<path d="M24.1055 76.9568L25.2386 78.0859L24.1055 79.215L25.0271 80.1328L26.1578 79.0037L27.2885 80.1328L28.2077 79.215L27.0769 78.0859L28.2077 76.9568L27.2885 76.0365L26.1578 77.168L25.0271 76.0365L24.1055 76.9568Z" fill="#B9BDC2"/>
<path d="M24.1055 63.8293L25.2386 64.9608L24.1055 66.09L25.0271 67.0078L26.1578 65.8787L27.2885 67.0078L28.2077 66.09L27.0769 64.9608L28.2077 63.8293L27.2885 62.9114L26.1578 64.0405L25.0271 62.9114L24.1055 63.8293Z" fill="#B9BDC2"/>
<path d="M24.1055 50.7042L25.2386 51.8333L24.1055 52.9649L25.0271 53.8828L26.1578 52.7536L27.2885 53.8828L28.2077 52.9649L27.0769 51.8333L28.2077 50.7042L27.2885 49.7864L26.1578 50.9155L25.0271 49.7864L24.1055 50.7042Z" fill="#B9BDC2"/>
<path d="M24.1055 37.5793L25.2386 38.7084L24.1055 39.8375L25.0271 40.7578L26.1578 39.6264L27.2885 40.7578L28.2077 39.8375L27.0769 38.7084L28.2077 37.5793L27.2885 36.6614L26.1578 37.7906L25.0271 36.6614L24.1055 37.5793Z" fill="#B9BDC2"/>
<path d="M27.2885 23.5365L26.1578 24.668L25.0271 23.5365L24.1055 24.4567L25.2386 25.5859L24.1055 26.715L25.0271 27.6328L26.1578 26.5037L27.2885 27.6328L28.2077 26.715L27.0769 25.5859L28.2077 24.4567L27.2885 23.5365Z" fill="#B9BDC2"/>
<path d="M27.2885 10.4114L26.1578 11.5405L25.0271 10.4114L24.1055 11.3293L25.2386 12.4608L24.1055 13.5899L25.0271 14.5078L26.1578 13.3787L27.2885 14.5078L28.2077 13.5899L27.0769 12.4608L28.2077 11.3293L27.2885 10.4114Z" fill="#B9BDC2"/>
<path d="M36.8867 76.9568L38.0174 78.0859L36.8867 79.215L37.8059 80.1328L38.9366 79.0037L40.0697 80.1328L40.9889 79.215L39.8582 78.0859L40.9889 76.9568L40.0697 76.0365L38.9366 77.168L37.8059 76.0365L36.8867 76.9568Z" fill="#B9BDC2"/>
<path d="M36.8867 63.8293L38.0174 64.9608L36.8867 66.09L37.8059 67.0078L38.9366 65.8787L40.0697 67.0078L40.9889 66.09L39.8582 64.9608L40.9889 63.8293L40.0697 62.9114L38.9366 64.0405L37.8059 62.9114L36.8867 63.8293Z" fill="#B9BDC2"/>
<path d="M36.8867 50.7042L38.0174 51.8333L36.8867 52.9649L37.8059 53.8828L38.9366 52.7536L40.0697 53.8828L40.9889 52.9649L39.8582 51.8333L40.9889 50.7042L40.0697 49.7864L38.9366 50.9155L37.8059 49.7864L36.8867 50.7042Z" fill="#B9BDC2"/>
<path d="M36.8867 37.5872L38.0174 38.7162L36.8867 39.8453L37.8059 40.7656L38.9366 39.6342L40.0697 40.7656L40.9889 39.8453L39.8582 38.7162L40.9889 37.5872L40.0697 36.6692L38.9366 37.7984L37.8059 36.6692L36.8867 37.5872Z" fill="#B9BDC2"/>
<path d="M36.8867 24.4567L38.0174 25.5859L36.8867 26.715L37.8059 27.6328L38.9366 26.5037L40.0697 27.6328L40.9889 26.715L39.8582 25.5859L40.9889 24.4567L40.0697 23.5365L38.9366 24.668L37.8059 23.5365L36.8867 24.4567Z" fill="#B9BDC2"/>
<path d="M36.8867 11.3293L38.0174 12.4608L36.8867 13.5899L37.8059 14.5078L38.9366 13.3787L40.0697 14.5078L40.9889 13.5899L39.8582 12.4608L40.9889 11.3293L40.0697 10.4114L38.9366 11.5405L37.8059 10.4114L36.8867 11.3293Z" fill="#B9BDC2"/>
<path d="M49.6641 76.9568L50.7972 78.0859L49.6641 79.215L50.5857 80.1328L51.7164 79.0037L52.8471 80.1328L53.7663 79.215L52.6355 78.0859L53.7662 76.9568L52.8471 76.0365L51.7164 77.168L50.5857 76.0365L49.6641 76.9568Z" fill="#B9BDC2"/>
<path d="M49.6641 63.8293L50.7972 64.9608L49.6641 66.09L50.5857 67.0078L51.7164 65.8787L52.8471 67.0078L53.7663 66.09L52.6355 64.9608L53.7662 63.8293L52.8471 62.9114L51.7164 64.0405L50.5857 62.9114L49.6641 63.8293Z" fill="#B9BDC2"/>
<path d="M49.6641 50.7042L50.7972 51.8333L49.6641 52.9649L50.5857 53.8828L51.7164 52.7536L52.8471 53.8828L53.7663 52.9649L52.6355 51.8333L53.7662 50.7042L52.8471 49.7864L51.7164 50.9155L50.5857 49.7864L49.6641 50.7042Z" fill="#B9BDC2"/>
<path d="M49.6641 37.5872L50.7972 38.7162L49.6641 39.8453L50.5857 40.7656L51.7164 39.6342L52.8471 40.7656L53.7663 39.8453L52.6355 38.7162L53.7662 37.5872L52.8471 36.6692L51.7164 37.7984L50.5857 36.6692L49.6641 37.5872Z" fill="#B9BDC2"/>
<path d="M52.8471 23.5365L51.7164 24.668L50.5857 23.5365L49.6641 24.4567L50.7972 25.5859L49.6641 26.715L50.5857 27.6328L51.7164 26.5037L52.8471 27.6328L53.7663 26.715L52.6355 25.5859L53.7662 24.4567L52.8471 23.5365Z" fill="#B9BDC2"/>
<path d="M52.8471 10.4114L51.7164 11.5405L50.5857 10.4114L49.6641 11.3293L50.7972 12.4608L49.6641 13.5899L50.5857 14.5078L51.7164 13.3787L52.8471 14.5078L53.7663 13.5899L52.6355 12.4608L53.7662 11.3293L52.8471 10.4114Z" fill="#B9BDC2"/>
<path d="M62.4414 76.9568L63.5721 78.0859L62.4414 79.215L63.3606 80.1328L64.4913 79.0037L65.6244 80.1328L66.5436 79.215L65.4129 78.0859L66.5436 76.9568L65.6244 76.0365L64.4913 77.168L63.3606 76.0365L62.4414 76.9568Z" fill="#B9BDC2"/>
<path d="M62.4414 63.8293L63.5721 64.9608L62.4414 66.09L63.3606 67.0078L64.4913 65.8787L65.6244 67.0078L66.5436 66.09L65.4129 64.9608L66.5436 63.8293L65.6244 62.9114L64.4913 64.0405L63.3606 62.9114L62.4414 63.8293Z" fill="#B9BDC2"/>
<path d="M62.4414 50.7042L63.5721 51.8333L62.4414 52.9649L63.3606 53.8828L64.4913 52.7536L65.6244 53.8828L66.5436 52.9649L65.4129 51.8333L66.5436 50.7042L65.6244 49.7864L64.4913 50.9155L63.3606 49.7864L62.4414 50.7042Z" fill="#B9BDC2"/>
<path d="M62.4414 37.5793L63.5721 38.7084L62.4414 39.8375L63.3606 40.7578L64.4913 39.6264L65.6244 40.7578L66.5436 39.8375L65.4129 38.7084L66.5436 37.5793L65.6244 36.6614L64.4913 37.7906L63.3606 36.6614L62.4414 37.5793Z" fill="#B9BDC2"/>
<path d="M62.4414 24.4567L63.5721 25.5859L62.4414 26.715L63.3606 27.6328L64.4913 26.5037L65.6244 27.6328L66.5436 26.715L65.4129 25.5859L66.5436 24.4567L65.6244 23.5365L64.4913 24.668L63.3606 23.5365L62.4414 24.4567Z" fill="#B9BDC2"/>
<path d="M62.4414 11.3293L63.5721 12.4608L62.4414 13.5899L63.3606 14.5078L64.4913 13.3787L65.6244 14.5078L66.5436 13.5899L65.4129 12.4608L66.5436 11.3293L65.6244 10.4114L64.4913 11.5405L63.3606 10.4114L62.4414 11.3293Z" fill="#B9BDC2"/>
<path d="M75.2187 76.9568L76.3519 78.0859L75.2187 79.215L76.1403 80.1328L77.2711 79.0037L78.4018 80.1328L79.3234 79.215L78.1902 78.0859L79.3234 76.9568L78.4018 76.0365L77.2711 77.168L76.1403 76.0365L75.2187 76.9568Z" fill="#B9BDC2"/>
<path d="M75.2187 63.8293L76.3519 64.9608L75.2187 66.09L76.1403 67.0078L77.2711 65.8787L78.4018 67.0078L79.3234 66.09L78.1902 64.9608L79.3234 63.8293L78.4018 62.9114L77.2711 64.0405L76.1403 62.9114L75.2187 63.8293Z" fill="#B9BDC2"/>
<path d="M75.2187 50.7042L76.3519 51.8333L75.2187 52.9649L76.1403 53.8828L77.2711 52.7536L78.4018 53.8828L79.3234 52.9649L78.1902 51.8333L79.3234 50.7042L78.4018 49.7864L77.2711 50.9155L76.1403 49.7864L75.2187 50.7042Z" fill="#B9BDC2"/>
<path d="M75.2187 37.5793L76.3519 38.7084L75.2187 39.8375L76.1403 40.7578L77.2711 39.6264L78.4018 40.7578L79.3234 39.8375L78.1902 38.7084L79.3234 37.5793L78.4018 36.6614L77.2711 37.7906L76.1403 36.6614L75.2187 37.5793Z" fill="#B9BDC2"/>
<path d="M78.4018 23.5365L77.2711 24.668L76.1403 23.5365L75.2187 24.4567L76.3519 25.5859L75.2187 26.715L76.1403 27.6328L77.2711 26.5037L78.4018 27.6328L79.3234 26.715L78.1902 25.5859L79.3234 24.4567L78.4018 23.5365Z" fill="#B9BDC2"/>
<path d="M78.4018 10.4114L77.2711 11.5405L76.1403 10.4114L75.2187 11.3293L76.3519 12.4608L75.2187 13.5899L76.1403 14.5078L77.2711 13.3787L78.4018 14.5078L79.3234 13.5899L78.1902 12.4608L79.3234 11.3293L78.4018 10.4114Z" fill="#B9BDC2"/>
<path d="M88.918 155.441L90.0487 156.57L88.918 157.699L89.8371 158.617L90.9678 157.488L92.101 158.617L93.0202 157.699L91.8894 156.57L93.0202 155.441L92.101 154.521L90.9678 155.652L89.8371 154.521L88.918 155.441Z" fill="#B9BDC2"/>
<path d="M88.918 142.314L90.0487 143.445L88.918 144.574L89.8371 145.492L90.9678 144.363L92.101 145.492L93.0202 144.574L91.8894 143.445L93.0202 142.314L92.101 141.396L90.9678 142.525L89.8371 141.396L88.918 142.314Z" fill="#B9BDC2"/>
<path d="M88.918 129.189L90.0487 130.318L88.918 131.449L89.8371 132.367L90.9678 131.238L92.101 132.367L93.0202 131.449L91.8894 130.318L93.0202 129.189L92.101 128.271L90.9678 129.4L89.8371 128.271L88.918 129.189Z" fill="#B9BDC2"/>
<path d="M88.918 116.072L90.0487 117.201L88.918 118.33L89.8371 119.25L90.9678 118.119L92.101 119.25L93.0202 118.33L91.8894 117.201L93.0202 116.072L92.101 115.154L90.9678 116.283L89.8371 115.154L88.918 116.072Z" fill="#B9BDC2"/>
<path d="M88.918 102.941L90.0487 104.07L88.918 105.199L89.8371 106.117L90.9678 104.988L92.101 106.117L93.0202 105.199L91.8894 104.07L93.0202 102.941L92.101 102.021L90.9678 103.152L89.8371 102.021L88.918 102.941Z" fill="#B9BDC2"/>
<path d="M88.918 89.8137L90.0487 90.9452L88.918 92.0743L89.8371 92.9922L90.9678 91.8631L92.101 92.9922L93.0202 92.0743L91.8894 90.9452L93.0202 89.8137L92.101 88.8958L90.9678 90.0249L89.8371 88.8958L88.918 89.8137Z" fill="#B9BDC2"/>
<path d="M101.691 155.441L102.825 156.57L101.691 157.699L102.613 158.617L103.744 157.488L104.874 158.617L105.794 157.699L104.663 156.57L105.794 155.441L104.874 154.521L103.744 155.652L102.613 154.521L101.691 155.441Z" fill="#B9BDC2"/>
<path d="M101.691 142.314L102.825 143.445L101.691 144.574L102.613 145.492L103.744 144.363L104.874 145.492L105.794 144.574L104.663 143.445L105.794 142.314L104.874 141.396L103.744 142.525L102.613 141.396L101.691 142.314Z" fill="#B9BDC2"/>
<path d="M101.691 129.189L102.825 130.318L101.691 131.449L102.613 132.367L103.744 131.238L104.874 132.367L105.794 131.449L104.663 130.318L105.794 129.189L104.874 128.271L103.744 129.4L102.613 128.271L101.691 129.189Z" fill="#B9BDC2"/>
<path d="M101.691 116.072L102.825 117.201L101.691 118.33L102.613 119.25L103.744 118.119L104.874 119.25L105.794 118.33L104.663 117.201L105.794 116.072L104.874 115.154L103.744 116.283L102.613 115.154L101.691 116.072Z" fill="#B9BDC2"/>
<path d="M104.874 102.021L103.744 103.152L102.613 102.021L101.691 102.941L102.825 104.07L101.691 105.199L102.613 106.117L103.744 104.988L104.874 106.117L105.794 105.199L104.663 104.07L105.794 102.941L104.874 102.021Z" fill="#B9BDC2"/>
<path d="M104.874 88.8958L103.744 90.0249L102.613 88.8958L101.691 89.8137L102.825 90.9452L101.691 92.0743L102.613 92.9922L103.744 91.8631L104.874 92.9922L105.794 92.0743L104.663 90.9452L105.794 89.8137L104.874 88.8958Z" fill="#B9BDC2"/>
<path d="M114.473 155.441L115.603 156.57L114.473 157.699L115.392 158.617L116.523 157.488L117.656 158.617L118.575 157.699L117.444 156.57L118.575 155.441L117.656 154.521L116.523 155.652L115.392 154.521L114.473 155.441Z" fill="#B9BDC2"/>
<path d="M114.473 142.314L115.603 143.445L114.473 144.574L115.392 145.492L116.523 144.363L117.656 145.492L118.575 144.574L117.444 143.445L118.575 142.314L117.656 141.396L116.523 142.525L115.392 141.396L114.473 142.314Z" fill="#B9BDC2"/>
<path d="M114.473 129.189L115.603 130.318L114.473 131.449L115.392 132.367L116.523 131.238L117.656 132.367L118.575 131.449L117.444 130.318L118.575 129.189L117.656 128.271L116.523 129.4L115.392 128.271L114.473 129.189Z" fill="#B9BDC2"/>
<path d="M114.473 116.072L115.603 117.201L114.473 118.33L115.392 119.25L116.523 118.119L117.656 119.25L118.575 118.33L117.444 117.201L118.575 116.072L117.656 115.154L116.523 116.283L115.392 115.154L114.473 116.072Z" fill="#B9BDC2"/>
<path d="M114.473 102.941L115.603 104.07L114.473 105.199L115.392 106.117L116.523 104.988L117.656 106.117L118.575 105.199L117.444 104.07L118.575 102.941L117.656 102.021L116.523 103.152L115.392 102.021L114.473 102.941Z" fill="#B9BDC2"/>
<path d="M114.473 89.8137L115.603 90.9452L114.473 92.0743L115.392 92.9922L116.523 91.8631L117.656 92.9922L118.575 92.0743L117.444 90.9452L118.575 89.8137L117.656 88.8958L116.523 90.0249L115.392 88.8958L114.473 89.8137Z" fill="#B9BDC2"/>
<path d="M127.25 155.441L128.383 156.57L127.25 157.699L128.172 158.617L129.302 157.488L130.433 158.617L131.352 157.699L130.221 156.57L131.352 155.441L130.433 154.521L129.302 155.652L128.172 154.521L127.25 155.441Z" fill="#B9BDC2"/>
<path d="M127.25 142.314L128.383 143.445L127.25 144.574L128.172 145.492L129.302 144.363L130.433 145.492L131.352 144.574L130.221 143.445L131.352 142.314L130.433 141.396L129.302 142.525L128.172 141.396L127.25 142.314Z" fill="#B9BDC2"/>
<path d="M127.25 129.189L128.383 130.318L127.25 131.449L128.172 132.367L129.302 131.238L130.433 132.367L131.352 131.449L130.221 130.318L131.352 129.189L130.433 128.271L129.302 129.4L128.172 128.271L127.25 129.189Z" fill="#B9BDC2"/>
<path d="M127.25 116.072L128.383 117.201L127.25 118.33L128.172 119.25L129.302 118.119L130.433 119.25L131.352 118.33L130.221 117.201L131.352 116.072L130.433 115.154L129.302 116.283L128.172 115.154L127.25 116.072Z" fill="#B9BDC2"/>
<path d="M130.433 102.021L129.302 103.152L128.172 102.021L127.25 102.941L128.383 104.07L127.25 105.199L128.172 106.117L129.302 104.988L130.433 106.117L131.352 105.199L130.221 104.07L131.352 102.941L130.433 102.021Z" fill="#B9BDC2"/>
<path d="M130.433 88.8958L129.302 90.0249L128.172 88.8958L127.25 89.8137L128.383 90.9452L127.25 92.0743L128.172 92.9922L129.302 91.8631L130.433 92.9922L131.352 92.0743L130.221 90.9452L131.352 89.8137L130.433 88.8958Z" fill="#B9BDC2"/>
<path d="M140.027 155.441L141.158 156.57L140.027 157.699L140.947 158.617L142.077 157.488L143.21 158.617L144.13 157.699L142.999 156.57L144.13 155.441L143.21 154.521L142.077 155.652L140.947 154.521L140.027 155.441Z" fill="#B9BDC2"/>
<path d="M140.027 142.314L141.158 143.445L140.027 144.574L140.947 145.492L142.077 144.363L143.21 145.492L144.13 144.574L142.999 143.445L144.13 142.314L143.21 141.396L142.077 142.525L140.947 141.396L140.027 142.314Z" fill="#B9BDC2"/>
<path d="M140.027 129.189L141.158 130.318L140.027 131.449L140.947 132.367L142.077 131.238L143.21 132.367L144.13 131.449L142.999 130.318L144.13 129.189L143.21 128.271L142.077 129.4L140.947 128.271L140.027 129.189Z" fill="#B9BDC2"/>
<path d="M140.027 116.072L141.158 117.201L140.027 118.33L140.947 119.25L142.077 118.119L143.21 119.25L144.13 118.33L142.999 117.201L144.13 116.072L143.21 115.154L142.077 116.283L140.947 115.154L140.027 116.072Z" fill="#B9BDC2"/>
<path d="M140.027 102.941L141.158 104.07L140.027 105.199L140.947 106.117L142.077 104.988L143.21 106.117L144.13 105.199L142.999 104.07L144.13 102.941L143.21 102.021L142.077 103.152L140.947 102.021L140.027 102.941Z" fill="#B9BDC2"/>
<path d="M140.027 89.8137L141.158 90.9452L140.027 92.0743L140.947 92.9922L142.077 91.8631L143.21 92.9922L144.13 92.0743L142.999 90.9452L144.13 89.8137L143.21 88.8958L142.077 90.0249L140.947 88.8958L140.027 89.8137Z" fill="#B9BDC2"/>
<path d="M152.805 155.441L153.938 156.57L152.805 157.699L153.726 158.617L154.857 157.488L155.988 158.617L156.909 157.699L155.776 156.57L156.909 155.441L155.988 154.521L154.857 155.652L153.726 154.521L152.805 155.441Z" fill="#B9BDC2"/>
<path d="M152.805 142.314L153.938 143.445L152.805 144.574L153.726 145.492L154.857 144.363L155.988 145.492L156.909 144.574L155.776 143.445L156.909 142.314L155.988 141.396L154.857 142.525L153.726 141.396L152.805 142.314Z" fill="#B9BDC2"/>
<path d="M152.805 129.189L153.938 130.318L152.805 131.449L153.726 132.367L154.857 131.238L155.988 132.367L156.909 131.449L155.776 130.318L156.909 129.189L155.988 128.271L154.857 129.4L153.726 128.271L152.805 129.189Z" fill="#B9BDC2"/>
<path d="M152.805 116.072L153.938 117.201L152.805 118.33L153.726 119.25L154.857 118.119L155.988 119.25L156.909 118.33L155.776 117.201L156.909 116.072L155.988 115.154L154.857 116.283L153.726 115.154L152.805 116.072Z" fill="#B9BDC2"/>
<path d="M155.988 102.021L154.857 103.152L153.726 102.021L152.805 102.941L153.938 104.07L152.805 105.199L153.726 106.117L154.857 104.988L155.988 106.117L156.909 105.199L155.776 104.07L156.909 102.941L155.988 102.021Z" fill="#B9BDC2"/>
<path d="M155.988 88.8958L154.857 90.0249L153.726 88.8958L152.805 89.8137L153.938 90.9452L152.805 92.0743L153.726 92.9922L154.857 91.8631L155.988 92.9922L156.909 92.0743L155.776 90.9452L156.909 89.8137L155.988 88.8958Z" fill="#B9BDC2"/>
<path d="M11.332 155.441L12.4627 156.57L11.332 157.699L12.2512 158.617L13.3819 157.488L14.5151 158.617L15.4342 157.699L14.3035 156.57L15.4342 155.441L14.5151 154.521L13.3819 155.652L12.2512 154.521L11.332 155.441Z" fill="#B9BDC2"/>
<path d="M11.332 142.314L12.4627 143.445L11.332 144.574L12.2512 145.492L13.3819 144.363L14.5151 145.492L15.4342 144.574L14.3035 143.445L15.4342 142.314L14.5151 141.396L13.3819 142.525L12.2512 141.396L11.332 142.314Z" fill="#B9BDC2"/>
<path d="M11.332 129.189L12.4627 130.318L11.332 131.449L12.2512 132.367L13.3819 131.238L14.5151 132.367L15.4342 131.449L14.3035 130.318L15.4342 129.189L14.5151 128.271L13.3819 129.4L12.2512 128.271L11.332 129.189Z" fill="#B9BDC2"/>
<path d="M11.332 116.072L12.4627 117.201L11.332 118.33L12.2512 119.25L13.3819 118.119L14.5151 119.25L15.4342 118.33L14.3035 117.201L15.4342 116.072L14.5151 115.154L13.3819 116.283L12.2512 115.154L11.332 116.072Z" fill="#B9BDC2"/>
<path d="M11.332 102.941L12.4627 104.07L11.332 105.199L12.2512 106.117L13.3819 104.988L14.5151 106.117L15.4342 105.199L14.3035 104.07L15.4342 102.941L14.5151 102.021L13.3819 103.152L12.2512 102.021L11.332 102.941Z" fill="#B9BDC2"/>
<path d="M11.332 89.8137L12.4627 90.9452L11.332 92.0743L12.2512 92.9922L13.3819 91.8631L14.5151 92.9922L15.4342 92.0743L14.3035 90.9452L15.4342 89.8137L14.5151 88.8958L13.3819 90.0249L12.2512 88.8958L11.332 89.8137Z" fill="#B9BDC2"/>
<path d="M24.1055 155.441L25.2386 156.57L24.1055 157.699L25.0271 158.617L26.1578 157.488L27.2885 158.617L28.2077 157.699L27.0769 156.57L28.2077 155.441L27.2885 154.521L26.1578 155.652L25.0271 154.521L24.1055 155.441Z" fill="#B9BDC2"/>
<path d="M24.1055 142.314L25.2386 143.445L24.1055 144.574L25.0271 145.492L26.1578 144.363L27.2885 145.492L28.2077 144.574L27.0769 143.445L28.2077 142.314L27.2885 141.396L26.1578 142.525L25.0271 141.396L24.1055 142.314Z" fill="#B9BDC2"/>
<path d="M24.1055 129.189L25.2386 130.318L24.1055 131.449L25.0271 132.367L26.1578 131.238L27.2885 132.367L28.2077 131.449L27.0769 130.318L28.2077 129.189L27.2885 128.271L26.1578 129.4L25.0271 128.271L24.1055 129.189Z" fill="#B9BDC2"/>
<path d="M24.1055 116.072L25.2386 117.201L24.1055 118.33L25.0271 119.25L26.1578 118.119L27.2885 119.25L28.2077 118.33L27.0769 117.201L28.2077 116.072L27.2885 115.154L26.1578 116.283L25.0271 115.154L24.1055 116.072Z" fill="#B9BDC2"/>
<path d="M27.2885 102.021L26.1578 103.152L25.0271 102.021L24.1055 102.941L25.2386 104.07L24.1055 105.199L25.0271 106.117L26.1578 104.988L27.2885 106.117L28.2077 105.199L27.0769 104.07L28.2077 102.941L27.2885 102.021Z" fill="#B9BDC2"/>
<path d="M27.2885 88.8958L26.1578 90.0249L25.0271 88.8958L24.1055 89.8137L25.2386 90.9452L24.1055 92.0743L25.0271 92.9922L26.1578 91.8631L27.2885 92.9922L28.2077 92.0743L27.0769 90.9452L28.2077 89.8137L27.2885 88.8958Z" fill="#B9BDC2"/>
<path d="M36.8867 155.441L38.0174 156.57L36.8867 157.699L37.8059 158.617L38.9366 157.488L40.0697 158.617L40.9889 157.699L39.8582 156.57L40.9889 155.441L40.0697 154.521L38.9366 155.652L37.8059 154.521L36.8867 155.441Z" fill="#B9BDC2"/>
<path d="M36.8867 142.314L38.0174 143.445L36.8867 144.574L37.8059 145.492L38.9366 144.363L40.0697 145.492L40.9889 144.574L39.8582 143.445L40.9889 142.314L40.0697 141.396L38.9366 142.525L37.8059 141.396L36.8867 142.314Z" fill="#B9BDC2"/>
<path d="M36.8867 129.189L38.0174 130.318L36.8867 131.449L37.8059 132.367L38.9366 131.238L40.0697 132.367L40.9889 131.449L39.8582 130.318L40.9889 129.189L40.0697 128.271L38.9366 129.4L37.8059 128.271L36.8867 129.189Z" fill="#B9BDC2"/>
<path d="M36.8867 116.072L38.0174 117.201L36.8867 118.33L37.8059 119.25L38.9366 118.119L40.0697 119.25L40.9889 118.33L39.8582 117.201L40.9889 116.072L40.0697 115.154L38.9366 116.283L37.8059 115.154L36.8867 116.072Z" fill="#B9BDC2"/>
<path d="M36.8867 102.941L38.0174 104.07L36.8867 105.199L37.8059 106.117L38.9366 104.988L40.0697 106.117L40.9889 105.199L39.8582 104.07L40.9889 102.941L40.0697 102.021L38.9366 103.152L37.8059 102.021L36.8867 102.941Z" fill="#B9BDC2"/>
<path d="M36.8867 89.8137L38.0174 90.9452L36.8867 92.0743L37.8059 92.9922L38.9366 91.8631L40.0697 92.9922L40.9889 92.0743L39.8582 90.9452L40.9889 89.8137L40.0697 88.8958L38.9366 90.0249L37.8059 88.8958L36.8867 89.8137Z" fill="#B9BDC2"/>
<path d="M49.6641 155.441L50.7972 156.57L49.6641 157.699L50.5857 158.617L51.7164 157.488L52.8471 158.617L53.7663 157.699L52.6355 156.57L53.7662 155.441L52.8471 154.521L51.7164 155.652L50.5857 154.521L49.6641 155.441Z" fill="#B9BDC2"/>
<path d="M49.6641 142.314L50.7972 143.445L49.6641 144.574L50.5857 145.492L51.7164 144.363L52.8471 145.492L53.7663 144.574L52.6355 143.445L53.7662 142.314L52.8471 141.396L51.7164 142.525L50.5857 141.396L49.6641 142.314Z" fill="#B9BDC2"/>
<path d="M49.6641 129.189L50.7972 130.318L49.6641 131.449L50.5857 132.367L51.7164 131.238L52.8471 132.367L53.7663 131.449L52.6355 130.318L53.7662 129.189L52.8471 128.271L51.7164 129.4L50.5857 128.271L49.6641 129.189Z" fill="#B9BDC2"/>
<path d="M49.6641 116.072L50.7972 117.201L49.6641 118.33L50.5857 119.25L51.7164 118.119L52.8471 119.25L53.7663 118.33L52.6355 117.201L53.7662 116.072L52.8471 115.154L51.7164 116.283L50.5857 115.154L49.6641 116.072Z" fill="#B9BDC2"/>
<path d="M52.8471 102.021L51.7164 103.152L50.5857 102.021L49.6641 102.941L50.7972 104.07L49.6641 105.199L50.5857 106.117L51.7164 104.988L52.8471 106.117L53.7663 105.199L52.6355 104.07L53.7662 102.941L52.8471 102.021Z" fill="#B9BDC2"/>
<path d="M52.8471 88.8958L51.7164 90.0249L50.5857 88.8958L49.6641 89.8137L50.7972 90.9452L49.6641 92.0743L50.5857 92.9922L51.7164 91.8631L52.8471 92.9922L53.7663 92.0743L52.6355 90.9452L53.7662 89.8137L52.8471 88.8958Z" fill="#B9BDC2"/>
<path d="M62.4414 155.441L63.5721 156.57L62.4414 157.699L63.3606 158.617L64.4913 157.488L65.6244 158.617L66.5436 157.699L65.4129 156.57L66.5436 155.441L65.6244 154.521L64.4913 155.652L63.3606 154.521L62.4414 155.441Z" fill="#B9BDC2"/>
<path d="M62.4414 142.314L63.5721 143.445L62.4414 144.574L63.3606 145.492L64.4913 144.363L65.6244 145.492L66.5436 144.574L65.4129 143.445L66.5436 142.314L65.6244 141.396L64.4913 142.525L63.3606 141.396L62.4414 142.314Z" fill="#B9BDC2"/>
<path d="M62.4414 129.189L63.5721 130.318L62.4414 131.449L63.3606 132.367L64.4913 131.238L65.6244 132.367L66.5436 131.449L65.4129 130.318L66.5436 129.189L65.6244 128.271L64.4913 129.4L63.3606 128.271L62.4414 129.189Z" fill="#B9BDC2"/>
<path d="M62.4414 116.072L63.5721 117.201L62.4414 118.33L63.3606 119.25L64.4913 118.119L65.6244 119.25L66.5436 118.33L65.4129 117.201L66.5436 116.072L65.6244 115.154L64.4913 116.283L63.3606 115.154L62.4414 116.072Z" fill="#B9BDC2"/>
<path d="M62.4414 102.941L63.5721 104.07L62.4414 105.199L63.3606 106.117L64.4913 104.988L65.6244 106.117L66.5436 105.199L65.4129 104.07L66.5436 102.941L65.6244 102.021L64.4913 103.152L63.3606 102.021L62.4414 102.941Z" fill="#B9BDC2"/>
<path d="M62.4414 89.8137L63.5721 90.9452L62.4414 92.0743L63.3606 92.9922L64.4913 91.8631L65.6244 92.9922L66.5436 92.0743L65.4129 90.9452L66.5436 89.8137L65.6244 88.8958L64.4913 90.0249L63.3606 88.8958L62.4414 89.8137Z" fill="#B9BDC2"/>
<path d="M75.2187 155.441L76.3519 156.57L75.2187 157.699L76.1403 158.617L77.2711 157.488L78.4018 158.617L79.3234 157.699L78.1902 156.57L79.3234 155.441L78.4018 154.521L77.2711 155.652L76.1403 154.521L75.2187 155.441Z" fill="#B9BDC2"/>
<path d="M75.2187 142.314L76.3519 143.445L75.2187 144.574L76.1403 145.492L77.2711 144.363L78.4018 145.492L79.3234 144.574L78.1902 143.445L79.3234 142.314L78.4018 141.396L77.2711 142.525L76.1403 141.396L75.2187 142.314Z" fill="#B9BDC2"/>
<path d="M75.2187 129.189L76.3519 130.318L75.2187 131.449L76.1403 132.367L77.2711 131.238L78.4018 132.367L79.3234 131.449L78.1902 130.318L79.3234 129.189L78.4018 128.271L77.2711 129.4L76.1403 128.271L75.2187 129.189Z" fill="#B9BDC2"/>
<path d="M75.2187 116.072L76.3519 117.201L75.2187 118.33L76.1403 119.25L77.2711 118.119L78.4018 119.25L79.3234 118.33L78.1902 117.201L79.3234 116.072L78.4018 115.154L77.2711 116.283L76.1403 115.154L75.2187 116.072Z" fill="#B9BDC2"/>
<path d="M78.4018 102.021L77.2711 103.152L76.1403 102.021L75.2187 102.941L76.3519 104.07L75.2187 105.199L76.1403 106.117L77.2711 104.988L78.4018 106.117L79.3234 105.199L78.1902 104.07L79.3234 102.941L78.4018 102.021Z" fill="#B9BDC2"/>
<path d="M78.4018 88.8958L77.2711 90.0249L76.1403 88.8958L75.2187 89.8137L76.3519 90.9452L75.2187 92.0743L76.1403 92.9922L77.2711 91.8631L78.4018 92.9922L79.3234 92.0743L78.1902 90.9452L79.3234 89.8137L78.4018 88.8958Z" fill="#B9BDC2"/>
</svg>
